<svg width="13" height="15" viewBox="0 0 13 15" fill="none" xmlns="http://www.w3.org/2000/svg">
<path d="M11.4768 2.97714C10.8859 2.97714 10.2723 2.97714 9.68139 2.97714C9.74957 3.43167 9.79502 3.90892 9.79502 4.36344C9.79502 4.77252 9.7723 5.18159 9.70412 5.56794C10.5223 5.56794 11.3404 5.56794 12.1813 5.56794C12.1813 5.61339 12.1813 5.65884 12.1813 5.70429C12.1813 6.81788 12.1813 7.9542 12.1813 9.06778C11.4768 9.3405 10.9995 9.99956 10.9995 10.795C10.9995 11.0677 11.0677 11.3177 11.1586 11.5449C10.8177 11.8404 10.545 12.2267 10.3859 12.6358C10.045 12.3858 9.61321 12.2267 9.15869 12.2267C8.84052 12.2267 8.54508 12.2949 8.29509 12.4313V8.77234V8.52235H8.43145L8.29509 8.24964C8.36327 8.15873 8.40872 8.0451 8.45417 7.93147L10.1586 8.49963V7.93147L9.02233 6.40881C9.18142 5.77247 9.27232 5.09069 9.27232 4.36344C9.27232 2.6817 8.79507 1.13631 8.0451 0.0681788C7.97692 -0.0227263 7.84056 -0.0227263 7.79511 0.0681788C6.99969 1.13631 6.52244 2.65897 6.52244 4.36344C6.52244 5.09069 6.61335 5.77247 6.77243 6.40881L5.61339 7.9542V8.52235L7.31786 7.9542C7.36331 8.06783 7.43149 8.15873 7.47694 8.27236L7.36331 8.52235H7.49967V8.77234V12.5222C7.13605 12.204 6.63607 11.9995 6.11337 11.9995C5.93156 11.9995 5.72702 12.0222 5.56794 12.0677C5.49976 11.2495 4.81797 10.5904 3.99983 10.5904C3.6362 10.5904 3.29531 10.7268 3.02259 10.9313C2.45444 10.5677 1.77265 10.3632 1.04541 10.3632C0.97723 10.3632 0.931778 10.3632 0.863599 10.3632C0.863599 8.81779 0.863599 7.27241 0.863599 5.70429C0.863599 5.65884 0.863599 5.61339 0.863599 5.56794C2.61352 5.56794 4.34072 5.56794 6.06792 5.56794C6.02246 5.18159 5.97701 4.77252 5.97701 4.36344C5.97701 3.88619 6.02246 3.43167 6.09064 2.97714C4.59071 2.97714 3.06805 2.97714 1.56811 2.97714C0.659062 2.97714 0 3.6362 0 4.54526C0 7.24968 0 9.97683 0 12.6813C0 13.3176 0.295442 13.7948 0.863599 14.0903C1.09086 14.2039 1.34085 14.2494 1.59084 14.2494C4.15891 14.2494 6.72698 14.2494 9.29505 14.2494C10.0223 14.2494 10.7495 14.2494 11.4995 14.2494C12.1813 14.2494 12.7494 13.8176 12.9312 13.1812C12.9767 13.0222 12.9994 12.8631 12.9994 12.704C12.9994 9.97683 12.9994 7.24968 12.9994 4.52253C13.0222 3.6362 12.3631 2.97714 11.4768 2.97714ZM4.56798 3.84074C4.79524 3.84074 4.99978 4.02255 4.99978 4.27254C4.99978 4.52253 4.81797 4.70434 4.56798 4.70434C4.34072 4.70434 4.13618 4.52253 4.13618 4.27254C4.13618 4.02255 4.34072 3.84074 4.56798 3.84074ZM3.1135 3.84074C3.34076 3.84074 3.5453 4.02255 3.5453 4.27254C3.5453 4.52253 3.34076 4.68161 3.1135 4.68161C2.88624 4.68161 2.6817 4.4998 2.6817 4.24981C2.6817 3.99982 2.88624 3.84074 3.1135 3.84074ZM1.65902 3.84074C1.88628 3.84074 2.09082 4.02255 2.09082 4.27254C2.09082 4.52253 1.90901 4.70434 1.65902 4.70434C1.40903 4.70434 1.22722 4.52253 1.22722 4.27254C1.22722 4.02255 1.43176 3.84074 1.65902 3.84074Z" fill="#8D9CB5"/>
</svg>
