<?xml version="1.0" encoding="UTF-8" standalone="no"?>
<!-- Created with Inkscape (http://www.inkscape.org/) -->

<svg
   width="3.8mm"
   height="3.8mm"
   viewBox="0 0 3.7999999 3.7999999"
   version="1.1"
   id="svg12566"
   inkscape:version="1.1.1 (3bf5ae0d25, 2021-09-20)"
   sodipodi:docname="Basics.svg"
   xmlns:inkscape="http://www.inkscape.org/namespaces/inkscape"
   xmlns:sodipodi="http://sodipodi.sourceforge.net/DTD/sodipodi-0.dtd"
   xmlns="http://www.w3.org/2000/svg"
   xmlns:svg="http://www.w3.org/2000/svg">
  <sodipodi:namedview
     id="namedview12568"
     pagecolor="#ffffff"
     bordercolor="#999999"
     borderopacity="1"
     inkscape:pageshadow="0"
     inkscape:pageopacity="0"
     inkscape:pagecheckerboard="0"
     inkscape:document-units="mm"
     showgrid="false"
     inkscape:zoom="32.332953"
     inkscape:cx="8.6444315"
     inkscape:cy="5.8299654"
     inkscape:window-width="1920"
     inkscape:window-height="991"
     inkscape:window-x="-9"
     inkscape:window-y="-9"
     inkscape:window-maximized="1"
     inkscape:current-layer="layer1" />
  <defs
     id="defs12563" />
  <g
     inkscape:label="Laag 1"
     inkscape:groupmode="layer"
     id="layer1">
    <path
       style="fill:#8d9cb5;fill-opacity:1;stroke-width:0.999999"
       d="m 0.2939526,3.7500164 c -0.0923,-0.0135 -0.17321,-0.0744 -0.21516,-0.16177 l -0.023,-0.048 -0.002,-0.65486 c -0.002,-0.64964 -0.002,-0.65522 0.0136,-0.70115 0.0283,-0.0841 0.0848,-0.14264 0.17224,-0.17859 0.037,-0.0152 0.0474,-0.0155 0.67129006,-0.0175 0.41642994,-10e-4 0.64796994,5.5e-4 0.67537994,0.006 0.0935,0.0172 0.16967,0.0756 0.21009,0.1609 l 0.0235,0.0496 v 0.668 0.668 l -0.0208,0.0451 c -0.0249,0.0539 -0.0818,0.11235 -0.13503,0.13889 -0.0208,0.0104 -0.0606,0.0221 -0.0886,0.0262 -0.062,0.009 -1.22012,0.009 -1.2815,-3.6e-4 z m 0.78042,-0.4659 c 0.11952,-0.0256 0.18726,-0.10017 0.19403,-0.21349 0.005,-0.0754 -0.0106,-0.12063 -0.0548,-0.16426 -0.0183,-0.018 -0.0429,-0.0368 -0.0547,-0.0417 l -0.0215,-0.009 0.0332,-0.0369 c 0.0807,-0.0898 0.0691,-0.24196 -0.024,-0.31291 -0.0653,-0.0498 -0.0977,-0.0567 -0.28449004,-0.0602 -0.18767,-0.004 -0.2134,-9.4e-4 -0.23872,0.0244 l -0.0176,0.0176 v 0.38334 c 0,0.36631 6.2e-4,0.38412 0.0141,0.40077 0.0139,0.0172 0.0164,0.0175 0.18638,0.0213 0.1846901,0.004 0.21111014,0.003 0.26823004,-0.009 z m -0.33418004,-0.23588 0.002,-0.12061 0.13655,9.5e-4 c 0.15406004,0.001 0.18863004,0.008 0.22667004,0.0424 0.0217,0.0199 0.0268,0.0303 0.0298,0.0613 0.005,0.0566 -0.0125,0.0882 -0.064,0.11231 -0.0392,0.0184 -0.0478,0.0194 -0.18708994,0.0218 l -0.1459601,0.003 z m 0.0961,-0.24792 -0.0978,-0.002 v -0.11109 -0.11109 l 0.13471,0.002 c 0.1230401,0.002 0.13741014,0.004 0.16592004,0.0191 0.0172,0.009 0.0363,0.0264 0.0424,0.0384 0.0253,0.0489 0.006,0.12009 -0.0384,0.14318 -0.0177,0.009 -0.10712994,0.03 -0.10855994,0.0253 -2.8e-4,-8.9e-4 -0.0445,-0.003 -0.0983,-0.004 z m 1.37495004,0.94947 c -0.0916,-0.0133 -0.17219,-0.0743 -0.21361,-0.16154 l -0.0228,-0.048 v -0.67169 -0.67169 l 0.0216,-0.0441 c 0.0407,-0.083 0.11785,-0.14122 0.21058,-0.1588 0.0533,-0.0101 1.24651,-0.0101 1.30024,5e-5 0.0914,0.0172 0.1686,0.0772 0.20892,0.16227 l 0.0228,0.048 v 0.668 0.668 l -0.0199,0.0425 c -0.0259,0.0552 -0.084,0.11606 -0.13443,0.14077 -0.0221,0.0108 -0.0628,0.0229 -0.0905,0.0269 -0.0625,0.009 -1.22039,0.008 -1.28286,-6.5e-4 z m 0.83388,-0.4543 c 0.0572,-0.0145 0.1436,-0.0547 0.16202,-0.0755 0.0181,-0.0204 0.0187,-0.0617 10e-4,-0.0809 -0.0233,-0.0258 -0.0442,-0.0251 -0.11323,0.004 -0.0582,0.0243 -0.0732,0.0274 -0.14604,0.0304 -0.0695,0.003 -0.088,9.5e-4 -0.12856,-0.0128 -0.12761,-0.0432 -0.18815,-0.13573 -0.18858,-0.28816 -2.2e-4,-0.0816 0.0134,-0.13414 0.0487,-0.18736 0.0785,-0.11854 0.25933,-0.15077 0.4237,-0.0755 0.0506,0.0232 0.0765,0.0243 0.0979,0.004 0.0216,-0.0201 0.027,-0.046 0.0151,-0.0712 -0.0128,-0.027 -0.11758,-0.0798 -0.18801,-0.0947 -0.0602,-0.0127 -0.1455,-0.014 -0.20619,-0.003 -0.0605,0.0109 -0.15492,0.058 -0.19653,0.098 -0.14319,0.13765 -0.17677,0.38116 -0.0782,0.56729 0.0403,0.0761 0.13551,0.15231 0.22764,0.18212 0.0739,0.0239 0.18242,0.0253 0.26906,0.003 z m -1.79991,-1.4791 c -0.0855,-0.0144 -0.16746,-0.0785 -0.20714,-0.16202 l -0.0228,-0.048 V 0.93836633 0.27035632 l 0.023,-0.048 c 0.0433,-0.0903 0.12195,-0.14775 0.22184,-0.16219 0.0671,-0.01 1.20724,-0.01 1.27438,0 0.0999,0.0144 0.17852,0.0719 0.22184,0.16219 l 0.023,0.048 V 0.93836633 1.6063664 l -0.0228,0.048 c -0.0413,0.0872 -0.12018,0.14713 -0.21383,0.16247 -0.0532,0.009 -1.24544,0.008 -1.29761,-4.7e-4 z m 0.37313,-0.47076 c 0.01,-0.0115 0.0339,-0.0596 0.0538,-0.10703 l 0.0363,-0.0862 h 0.18933 0.18933 l 0.0393,0.0927 c 0.0241,0.0568 0.0463,0.0983 0.0574,0.10703 0.0424,0.0333 0.10474,0.005 0.10474,-0.0475 0,-0.0166 -0.0511,-0.14613 -0.14695,-0.37214007 -0.0808,-0.19065 -0.15217,-0.35673 -0.15855,-0.36907 -0.0189,-0.0366 -0.046,-0.0533 -0.0866,-0.0533 -0.0634,0 -0.0626,-0.001 -0.23534,0.40597001 -0.0961,0.22658006 -0.15494,0.37461006 -0.15496,0.38970006 -5e-5,0.0567 0.0754,0.0834 0.11218,0.0397 z m 0.14614,-0.3230801 c 0,-0.0112 0.1281,-0.31297997 0.13286,-0.31297997 0.005,0 0.13286,0.30176997 0.13286,0.31297997 0,0.002 -0.0598,0.004 -0.13286,0.004 -0.0731,0 -0.13286,-0.002 -0.13286,-0.004 z"
       id="path9777"
       inkscape:export-filename="C:\Users\Gebruiker\Desktop\Robin\AUDIT.ONE\Basics icon.png"
       inkscape:export-xdpi="69.980003"
       inkscape:export-ydpi="69.980003" />
  </g>
</svg>
