<svg width="13" height="11" viewBox="0 0 13 11" fill="none" xmlns="http://www.w3.org/2000/svg">
<path d="M3 3.5H12.5C12.5 3.5 12.5 10 12.5 10.5C12.5 11 4 11 2.99999 10.5C1.99998 10 3 3.5 3 3.5Z" fill="#8D9CB5"/>
<path d="M12.87 1.65383L8.67242 0.028831C8.64907 0.019971 8.62428 0.0154951 8.5993 0.0156279H0.203125C0.149738 0.0171615 0.0989589 0.0390543 0.0611929 0.0768203C0.0234269 0.114586 0.00153399 0.165366 4.06802e-07 0.218753V1.89453C-6.86714e-05 1.92905 0.00866086 1.96302 0.0253649 1.99323C0.0420689 2.02344 0.0661962 2.0489 0.0954692 2.06719L0.40625 2.26117V9.41016C0.406946 9.4478 0.417786 9.48456 0.437627 9.51656C0.457468 9.54855 0.485575 9.5746 0.518985 9.59196L3.26117 10.9631C3.28932 10.9768 3.32022 10.9841 3.35156 10.9844H12.2891C12.3429 10.9844 12.3946 10.963 12.4327 10.9249C12.4708 10.8868 12.4922 10.8351 12.4922 10.7813V3.875H12.7969C12.8507 3.875 12.9024 3.8536 12.9405 3.81551C12.9786 3.77742 13 3.72575 13 3.67188V1.83766C12.9981 1.79781 12.9849 1.75934 12.9618 1.72677C12.9388 1.6942 12.9069 1.66889 12.87 1.65383ZM8.5607 0.421878L11.7091 1.64063H8.63281L6.5 0.421878H8.5607ZM3.19617 0.421878L5.32898 1.64063H3.09461L0.961797 0.421878H3.19617ZM12.0859 5.29688H11.2734C11.2196 5.29688 11.1679 5.31828 11.1298 5.35637C11.0917 5.39447 11.0703 5.44613 11.0703 5.5C11.0703 5.55388 11.0917 5.60554 11.1298 5.64363C11.1679 5.68173 11.2196 5.70313 11.2734 5.70313H12.0859V6.3125H10.8672C10.8133 6.3125 10.7617 6.3339 10.7236 6.372C10.6855 6.41009 10.6641 6.46176 10.6641 6.51563C10.6641 6.5695 10.6855 6.62117 10.7236 6.65926C10.7617 6.69735 10.8133 6.71875 10.8672 6.71875H12.0859V7.32813H11.2734C11.2196 7.32813 11.1679 7.34953 11.1298 7.38762C11.0917 7.42572 11.0703 7.47738 11.0703 7.53125C11.0703 7.58513 11.0917 7.63679 11.1298 7.67488C11.1679 7.71298 11.2196 7.73438 11.2734 7.73438H12.0859V10.5781H3.55469V7.73438H4.36719C4.42106 7.73438 4.47273 7.71298 4.51082 7.67488C4.54891 7.63679 4.57031 7.58513 4.57031 7.53125C4.57031 7.47738 4.54891 7.42572 4.51082 7.38762C4.47273 7.34953 4.42106 7.32813 4.36719 7.32813H3.55469V6.71875H4.77344C4.82731 6.71875 4.87898 6.69735 4.91707 6.65926C4.95516 6.62117 4.97656 6.5695 4.97656 6.51563C4.97656 6.46176 4.95516 6.41009 4.91707 6.372C4.87898 6.3339 4.82731 6.3125 4.77344 6.3125H3.55469V5.70313H4.36719C4.42106 5.70313 4.47273 5.68173 4.51082 5.64363C4.54891 5.60554 4.57031 5.55388 4.57031 5.5C4.57031 5.44613 4.54891 5.39447 4.51082 5.35637C4.47273 5.31828 4.42106 5.29688 4.36719 5.29688H3.55469V3.875H12.0859V5.29688ZM12.5938 2.55469H8.125C8.07113 2.55469 8.01946 2.57609 7.98137 2.61418C7.94328 2.65228 7.92188 2.70394 7.92188 2.75782C7.92188 2.81169 7.94328 2.86335 7.98137 2.90145C8.01946 2.93954 8.07113 2.96094 8.125 2.96094H12.5938V3.46875H3.25V2.04688H12.5938V2.55469Z" fill="#8D9CB5"/>
<path d="M8.42969 9.08672L7.94828 8.69773C7.9121 8.66838 7.86691 8.65236 7.82032 8.65236C7.77372 8.65236 7.72853 8.66838 7.69235 8.69773L7.21094 9.08672V8.16555H7.23024C7.27442 8.16017 7.3191 8.16017 7.36328 8.16555C7.4024 8.18155 7.43954 8.202 7.47399 8.22648C7.57384 8.30375 7.69436 8.3497 7.82032 8.35852C7.94594 8.35058 8.06643 8.30571 8.16664 8.22953C8.20106 8.205 8.23821 8.18455 8.27735 8.16859C8.32153 8.1631 8.36621 8.1631 8.41039 8.16859H8.42969V9.08672ZM9.58446 6.11906C9.55977 6.08511 9.5393 6.04828 9.52352 6.00938C9.51759 5.96488 9.51759 5.9198 9.52352 5.87531C9.53856 5.75308 9.51737 5.62912 9.46258 5.51883C9.39355 5.41547 9.29575 5.33461 9.18125 5.28625C9.14164 5.26872 9.10444 5.24619 9.07055 5.21922C9.04308 5.18511 9.0202 5.14756 9.0025 5.1075C8.95414 4.99301 8.87328 4.8952 8.76992 4.82617C8.65971 4.77114 8.53558 4.75028 8.41344 4.76625C8.36889 4.77118 8.32393 4.77118 8.27938 4.76625C8.24047 4.75048 8.20364 4.73001 8.16969 4.70531C8.06914 4.62706 7.94745 4.58072 7.82032 4.57227C7.69467 4.58014 7.57417 4.62502 7.47399 4.70125C7.44004 4.72595 7.40321 4.74641 7.3643 4.76219C7.31974 4.76704 7.27479 4.76704 7.23024 4.76219C7.10801 4.74714 6.98405 4.76833 6.87375 4.82313C6.77039 4.89215 6.68954 4.98996 6.64117 5.10445C6.62375 5.14434 6.60085 5.1816 6.57313 5.21516C6.53929 5.24249 6.50209 5.26536 6.46242 5.2832C6.34793 5.33156 6.25012 5.41242 6.1811 5.51578C6.12631 5.62608 6.10512 5.75003 6.12016 5.87227C6.12608 5.91676 6.12608 5.96184 6.12016 6.00633C6.10438 6.04523 6.08391 6.08206 6.05922 6.11602C5.98341 6.21643 5.93858 6.3368 5.93024 6.46234C5.93858 6.58788 5.98341 6.70825 6.05922 6.80867C6.08392 6.84262 6.10438 6.87945 6.12016 6.91836C6.12608 6.96285 6.12608 7.00793 6.12016 7.05242C6.10512 7.17465 6.12631 7.29861 6.1811 7.40891C6.25012 7.51226 6.34793 7.59312 6.46242 7.64148C6.50231 7.65891 6.53957 7.68181 6.57313 7.70953C6.60085 7.74309 6.62375 7.78035 6.64117 7.82023C6.68084 7.9075 6.73628 7.98669 6.80469 8.05383V9.51227C6.80569 9.55019 6.81728 9.58707 6.83817 9.61874C6.85905 9.6504 6.88838 9.67559 6.92284 9.69145C6.9573 9.7073 6.99551 9.71319 7.03315 9.70845C7.07078 9.70371 7.10634 9.68852 7.13578 9.66461L7.82032 9.11617L8.50485 9.66461C8.54099 9.69408 8.58618 9.71022 8.63282 9.71031C8.66313 9.71061 8.69308 9.70365 8.72016 9.69C8.75396 9.67392 8.78266 9.64881 8.80309 9.61745C8.82352 9.58608 8.83489 9.54968 8.83594 9.51227V8.05383C8.90405 7.98759 8.95947 7.90946 8.99946 7.82328C9.01317 7.78157 9.03649 7.74366 9.06754 7.71261C9.09858 7.68156 9.13649 7.65824 9.17821 7.64453C9.2927 7.59617 9.39051 7.51531 9.45953 7.41195C9.51432 7.30166 9.53551 7.1777 9.52047 7.05547C9.51455 7.01098 9.51455 6.9659 9.52047 6.92141C9.53625 6.8825 9.55671 6.84567 9.58141 6.81172C9.65722 6.7113 9.70205 6.59093 9.71039 6.46539C9.70293 6.34017 9.65917 6.21983 9.58446 6.11906ZM7.82032 7.48102C7.61944 7.48102 7.42308 7.42145 7.25606 7.30985C7.08905 7.19825 6.95887 7.03963 6.882 6.85405C6.80513 6.66847 6.78502 6.46426 6.8242 6.26725C6.86339 6.07024 6.96012 5.88927 7.10216 5.74724C7.2442 5.6052 7.42516 5.50847 7.62218 5.46928C7.81919 5.43009 8.0234 5.45021 8.20898 5.52708C8.39456 5.60395 8.55318 5.73412 8.66478 5.90114C8.77638 6.06816 8.83594 6.26452 8.83594 6.46539C8.83594 6.59876 8.80967 6.73083 8.75863 6.85405C8.70759 6.97727 8.63278 7.08924 8.53847 7.18355C8.44416 7.27786 8.3322 7.35267 8.20898 7.40371C8.08576 7.45475 7.95369 7.48102 7.82032 7.48102Z" fill="white"/>
</svg>
