<?xml version="1.0" encoding="UTF-8" standalone="no"?>
<!-- Created with Inkscape (http://www.inkscape.org/) -->

<svg
   width="3.8mm"
   height="3.8mm"
   viewBox="0 0 3.7999999 3.7999999"
   version="1.1"
   id="svg12566"
   inkscape:version="1.1.1 (3bf5ae0d25, 2021-09-20)"
   sodipodi:docname="Contribute.svg"
   xmlns:inkscape="http://www.inkscape.org/namespaces/inkscape"
   xmlns:sodipodi="http://sodipodi.sourceforge.net/DTD/sodipodi-0.dtd"
   xmlns="http://www.w3.org/2000/svg"
   xmlns:svg="http://www.w3.org/2000/svg">
  <sodipodi:namedview
     id="namedview12568"
     pagecolor="#ffffff"
     bordercolor="#999999"
     borderopacity="1"
     inkscape:pageshadow="0"
     inkscape:pageopacity="0"
     inkscape:pagecheckerboard="0"
     inkscape:document-units="mm"
     showgrid="false"
     inkscape:zoom="32.332953"
     inkscape:cx="0.71134857"
     inkscape:cy="10.005272"
     inkscape:window-width="1920"
     inkscape:window-height="991"
     inkscape:window-x="-9"
     inkscape:window-y="-9"
     inkscape:window-maximized="1"
     inkscape:current-layer="layer1" />
  <defs
     id="defs12563" />
  <g
     inkscape:label="Laag 1"
     inkscape:groupmode="layer"
     id="layer1">
    <path
       style="fill:#8d9cb5;fill-opacity:1;stroke-width:0.999999"
       d="m -4.6486313,7.4651374 c -0.0923,-0.0135 -0.17321,-0.0744 -0.21516,-0.16177 l -0.023,-0.048 -0.002,-0.65486 c -0.002,-0.64964 -0.002,-0.65522 0.0136,-0.70115 0.0283,-0.0841 0.0848,-0.14264 0.17224,-0.17859 0.037,-0.0152 0.0474,-0.0155 0.6712901,-0.0175 0.4164299,-10e-4 0.6479699,5.5e-4 0.6753799,0.006 0.0935,0.0172 0.16967,0.0756 0.21009,0.1609 l 0.0235,0.0496 v 0.668 0.668 l -0.0208,0.0451 c -0.0249,0.0539 -0.0818,0.11235 -0.13503,0.13889 -0.0208,0.0104 -0.0606,0.0221 -0.0886,0.0262 -0.062,0.009 -1.22012,0.009 -1.2815,-3.6e-4 z m 0.78042,-0.4659 c 0.11952,-0.0256 0.18726,-0.10017 0.19403,-0.21349 0.005,-0.0754 -0.0106,-0.12063 -0.0548,-0.16426 -0.0183,-0.018 -0.0429,-0.0368 -0.0547,-0.0417 l -0.0215,-0.009 0.0332,-0.0369 c 0.0807,-0.0898 0.0691,-0.24196 -0.024,-0.31291 -0.0653,-0.0498 -0.0977,-0.0567 -0.28449,-0.0602 -0.18767,-0.004 -0.2134,-9.4e-4 -0.23872,0.0244 l -0.0176,0.0176 v 0.38334 c 0,0.36631 6.2e-4,0.38412 0.0141,0.40077 0.0139,0.0172 0.0164,0.0175 0.18638,0.0213 0.1846901,0.004 0.2111101,0.003 0.26823,-0.009 z m -0.33418,-0.23588 0.002,-0.12061 0.13655,9.5e-4 c 0.15406,0.001 0.18863,0.008 0.22667,0.0424 0.0217,0.0199 0.0268,0.0303 0.0298,0.0613 0.005,0.0566 -0.0125,0.0882 -0.064,0.11231 -0.0392,0.0184 -0.0478,0.0194 -0.1870899,0.0218 l -0.1459601,0.003 z m 0.0961,-0.24792 -0.0978,-0.002 v -0.11109 -0.11109 l 0.13471,0.002 c 0.1230401,0.002 0.1374101,0.004 0.16592,0.0191 0.0172,0.009 0.0363,0.0264 0.0424,0.0384 0.0253,0.0489 0.006,0.12009 -0.0384,0.14318 -0.0177,0.009 -0.1071299,0.03 -0.1085599,0.0253 -2.8e-4,-8.9e-4 -0.0445,-0.003 -0.0983,-0.004 z m 1.37495,0.94947 c -0.0916,-0.0133 -0.17219,-0.0743 -0.21361,-0.16154 l -0.0228,-0.048 v -0.67169 -0.67169 l 0.0216,-0.0441 c 0.0407,-0.083 0.11785,-0.14122 0.21058,-0.1588 0.0533,-0.0101 1.24651,-0.0101 1.30024,5e-5 0.0914,0.0172 0.1686,0.0772 0.20892,0.16227 l 0.0228,0.048 v 0.668 0.668 l -0.0199,0.0425 c -0.0259,0.0552 -0.084,0.11606 -0.13443,0.14077 -0.0221,0.0108 -0.0628,0.0229 -0.0905,0.0269 -0.0625,0.009 -1.22039,0.008 -1.28286,-6.5e-4 z m 0.83388,-0.4543 c 0.0572,-0.0145 0.1436,-0.0547 0.16202,-0.0755 0.0181,-0.0204 0.0187,-0.0617 10e-4,-0.0809 -0.0233,-0.0258 -0.0442,-0.0251 -0.11323,0.004 -0.0582,0.0243 -0.0732,0.0274 -0.14604,0.0304 -0.0695,0.003 -0.088,9.5e-4 -0.12856,-0.0128 -0.12761,-0.0432 -0.18815,-0.13573 -0.18858,-0.28816 -2.2e-4,-0.0816 0.0134,-0.13414 0.0487,-0.18736 0.0785,-0.11854 0.25933,-0.15077 0.4237,-0.0755 0.0506,0.0232 0.0765,0.0243 0.0979,0.004 0.0216,-0.0201 0.027,-0.046 0.0151,-0.0712 -0.0128,-0.027 -0.11758,-0.0798 -0.18801,-0.0947 -0.0602,-0.0127 -0.1455,-0.014 -0.20619,-0.003 -0.0605,0.0109 -0.15492,0.058 -0.19653,0.098 -0.14319,0.13765 -0.17677,0.38116 -0.0782,0.56729 0.0403,0.0761 0.13551,0.15231 0.22764,0.18212 0.0739,0.0239 0.18242,0.0253 0.26906,0.003 z m -1.79991,-1.4791 c -0.0855,-0.0144 -0.16746,-0.0785 -0.20714,-0.16202 l -0.0228,-0.048 v -0.6680001 -0.66801 l 0.023,-0.048 c 0.0433,-0.0903 0.12195,-0.14775 0.22184,-0.16219 0.0671,-0.01 1.20724,-0.01 1.27438,0 0.0999,0.0144 0.17852,0.0719 0.22184,0.16219 l 0.023,0.048 v 0.66801 0.6680001 l -0.0228,0.048 c -0.0413,0.0872 -0.12018,0.14713 -0.21383,0.16247 -0.0532,0.009 -1.24544,0.008 -1.29761,-4.7e-4 z m 0.37313,-0.47076 c 0.01,-0.0115 0.0339,-0.0596 0.0538,-0.10703 l 0.0363,-0.0862 h 0.18933 0.18933 l 0.0393,0.0927 c 0.0241,0.0568 0.0463,0.0983 0.0574,0.10703 0.0424,0.0333 0.10474,0.005 0.10474,-0.0475 0,-0.0166 -0.0511,-0.14613 -0.14695,-0.3721401 -0.0808,-0.19065 -0.15217,-0.35673 -0.15855,-0.36907 -0.0189,-0.0366 -0.046,-0.0533 -0.0866,-0.0533 -0.0634,0 -0.0626,-10e-4 -0.23534,0.4059701 -0.0961,0.22658 -0.15494,0.37461 -0.15496,0.3897 -5e-5,0.0567 0.0754,0.0834 0.11218,0.0397 z m 0.14614,-0.3230801 c 0,-0.0112 0.1281,-0.31298 0.13286,-0.31298 0.005,0 0.13286,0.30177 0.13286,0.31298 0,0.002 -0.0598,0.004 -0.13286,0.004 -0.0731,0 -0.13286,-0.002 -0.13286,-0.004 z"
       id="path9777"
       inkscape:export-filename="C:\Users\Gebruiker\Desktop\Robin\AUDIT.ONE\Basics icon.png"
       inkscape:export-xdpi="69.980003"
       inkscape:export-ydpi="69.980003" />
    <path
       style="fill:#8d9cb5;fill-opacity:1;stroke-width:0.999997"
       d="m 1.1638351,3.2694916 c -0.052386,-0.018663 -0.074945,-0.077703 -0.046038,-0.1202725 0.00657,-0.010039 0.034291,-0.045359 0.060995,-0.0785 0.1731061,-0.2146505 0.1744923,-0.2162046 0.2082658,-0.2334334 0.039982,-0.020385 0.071574,-0.014877 0.084029,0.014643 0.00978,0.023231 0.00781,0.080159 -0.00365,0.1053813 -0.00511,0.01144 -0.026047,0.041602 -0.046257,0.067029 -0.020283,0.025427 -0.07048,0.089162 -0.1115712,0.1416397 -0.062527,0.079846 -0.077776,0.096627 -0.093331,0.1028517 -0.022253,0.00891 -0.029111,0.00899 -0.052459,6.668e-4 z m 0.5136785,-0.012097 c -0.00948,-0.00226 -0.062016,-0.023873 -0.1167004,-0.048074 -0.05472,-0.024201 -0.1015172,-0.043995 -0.1040708,-0.043995 -0.00219,0 -0.00438,-9.485e-4 -0.00438,-0.00219 0,-0.00117 0.023931,-0.032504 0.053188,-0.06959 0.029257,-0.037086 0.053188,-0.068882 0.053261,-0.070648 2.91e-5,-0.00175 0.00219,-0.00606 0.00438,-0.00959 0.00292,-0.00503 0.013133,-8.026e-4 0.047278,0.020203 0.081263,0.04992 0.1865308,0.117281 0.2225514,0.1424247 l 0.035969,0.025113 -0.016489,0.014453 c -0.04341,0.038107 -0.1162614,0.055589 -0.1744693,0.041865 z M 0.83943086,3.1616414 c -0.066686,-0.032234 -0.098015,-0.1052594 -0.070261,-0.1636891 0.00963,-0.020254 0.25003554,-0.3076088 0.31718834,-0.3791283 0.033051,-0.03524 0.078316,-0.067248 0.1162115,-0.082245 0.019408,-0.00768 0.032249,-0.00959 0.054793,-0.00819 0.026849,0.00168 0.030862,0.00328 0.044652,0.018371 0.027506,0.030001 0.031081,0.083445 0.010287,0.151682 -0.017219,0.056471 -0.00292,0.03629 -0.2227484,0.3097108 C 0.95683094,3.1730895 0.96001924,3.1702805 0.90200836,3.17332 c -0.030935,0.00161 -0.037648,3.597e-4 -0.0626,-0.011681 z m 1.17893954,0.00161 C 1.9834223,3.1517674 1.967298,3.1429314 1.9373915,3.1188914 1.899598,3.0885254 1.7741059,3.0056166 1.6716767,2.9433835 1.6284841,2.9171255 1.5924489,2.8951715 1.5916609,2.8946095 1.5909313,2.8940433 1.5880129,2.8793825 1.5858239,2.8620255 1.5744421,2.7814925 1.5211079,2.7244191 1.451416,2.7180985 l -0.027798,-0.00255 0.00292,-0.014344 c 0.00146,-0.00789 0.00438,-0.036181 0.00584,-0.062877 C 1.436028,2.5812655 1.430188,2.5490375 1.410563,2.5094238 1.37722,2.4426648 1.2953803,2.4052559 1.2166194,2.4207508 c -0.015613,0.00306 -0.029038,0.00489 -0.029841,0.00409 -7.296e-4,-8.025e-4 0.00365,-0.019065 0.00985,-0.040537 0.013717,-0.04749 0.018605,-0.1082369 0.011601,-0.1458218 C 1.1890352,2.1351976 1.0902689,2.0617308 0.98390714,2.0716162 c -0.039399,0.00365 -0.10160478,0.024099 -0.14068238,0.046235 -0.016124,0.00914 -0.030206,0.01662 -0.031227,0.01662 -7.296e-4,0 -0.00219,-0.00795 -0.00219,-0.017649 0,-0.025325 -0.012476,-0.064358 -0.028673,-0.089939 -0.051072,-0.080371 -0.1507948,-0.095954 -0.257412,-0.040209 -0.050051,0.026156 -0.087976,0.056194 -0.14533,0.11505 l -0.050051,0.051393 -0.040055,-0.01592 c -0.050781,-0.020174 -0.099569,-0.030198 -0.168247,-0.034554 -0.029841,-0.0019 -0.055669,-0.00489 -0.057493,-0.00671 -0.00292,-0.00285 0.099263,-1.20474496 0.1027284,-1.20876506 7.296e-4,-8.755e-4 0.052969,0.00693 0.1161239,0.017284 0.2863846,0.046987 0.5452266,0.078907 0.64060048,0.079002 0.014592,1.38e-5 0.026558,0.00117 0.026558,0.00255 0,0.00139 -0.033416,0.044542 -0.074332,0.095918 -0.094929,0.1192926 -0.2041581,0.2597445 -0.2346994,0.3017851 -0.026703,0.036721 -0.034656,0.06422 -0.027725,0.095251 0.00584,0.025288 0.010798,0.033963 0.03524,0.060156 0.063476,0.067839 0.2031877,0.1006242 0.34059418,0.079914 C 1.1532191,1.5940682 1.2997019,1.5105417 1.4420844,1.3598805 l 0.050124,-0.053028 0.1083609,-0.00649 c 0.059609,-0.00358 0.1289431,-0.00715 0.1541072,-0.00798 l 0.045746,-0.00146 0.012549,0.036984 c 0.058368,0.1722101 0.2046396,0.3509437 0.4467883,0.5458941 0.1037863,0.083554 0.2527571,0.1856437 0.4615335,0.3162897 0.1526845,0.095546 0.210907,0.13509 0.2286364,0.1552818 0.032467,0.036969 0.054793,0.1028678 0.048884,0.1445019 -0.010142,0.072085 -0.07968,0.132794 -0.1878441,0.1640211 l -0.038158,0.01101 -0.044287,-0.032942 C 2.6142754,2.5469243 2.375855,2.406525 2.1154882,2.2709439 c -0.054137,-0.02817 -0.072158,-0.035546 -0.08138,-0.033233 -0.020648,0.00518 -0.049759,0.060462 -0.043776,0.083119 0.00219,0.00736 0.019553,0.018911 0.063986,0.042018 0.2800808,0.1455533 0.5062875,0.2785603 0.618851,0.3638752 0.031008,0.023479 0.035532,0.028856 0.038085,0.044936 0.0073,0.044251 -0.016416,0.1039148 -0.056836,0.1444203 C 2.5939342,2.9766434 2.4979689,3.0001574 2.424826,2.9723024 2.4123499,2.9675599 2.2574766,2.8769699 2.0806058,2.7709846 1.9037276,2.665 1.7546401,2.5782842 1.7492921,2.5782842 c -0.021086,0 -0.052021,0.044783 -0.052021,0.0752 v 0.016022 l 0.3027788,0.1809829 c 0.1665251,0.099541 0.3027788,0.1821284 0.3027788,0.1835292 0,0.00686 -0.029403,0.043791 -0.051437,0.064607 -0.051364,0.048453 -0.1071133,0.071509 -0.1717928,0.071042 -0.02342,-1.751e-4 -0.050854,-0.00306 -0.061068,-0.00642 z M 0.54298506,2.916006 c -0.067197,-0.024179 -0.1112648,-0.080545 -0.115927,-0.1481529 -0.00365,-0.055034 -5.545e-4,-0.059995 0.1684659,-0.2589375 0.08316,-0.097882 0.1637817,-0.1902052 0.1791618,-0.2051613 0.094236,-0.091657 0.20434778,-0.1409853 0.26404394,-0.1182873 0.016124,0.00613 0.039107,0.025339 0.049394,0.041347 0.032686,0.050846 0.00657,0.1634373 -0.066613,0.2867946 C 1.0034897,2.5439166 0.73409006,2.8668469 0.70269516,2.89571 0.67168716,2.924223 0.59348796,2.934167 0.54305036,2.916008 Z M 0.31955076,2.5649667 c -0.053553,-0.017569 -0.089005,-0.067955 -0.08103,-0.1151375 0.00365,-0.022216 0.00883,-0.029352 0.07655,-0.1079326 0.02933,-0.033992 0.071137,-0.083639 0.093017,-0.1103338 0.064789,-0.079087 0.1189329,-0.1259131 0.1772649,-0.1532091 0.043484,-0.020349 0.07442,-0.021137 0.093988,-0.00241 0.033124,0.031731 0.029184,0.091778 -0.011309,0.1699922 -0.018751,0.036218 -0.2442864,0.3011226 -0.2652625,0.3115333 -0.018167,0.00901 -0.065592,0.013286 -0.083241,0.00749 z M 3.1092249,2.4772602 c -0.00146,-0.00124 -0.00219,-0.011156 -0.00219,-0.022049 0,-0.044119 -0.02291,-0.1094247 -0.054502,-0.1551199 C 3.0188998,2.2514051 2.9874538,2.2281307 2.7788159,2.0974628 2.3587239,1.8344059 2.1331446,1.6479896 2.0013342,1.4549719 1.9488756,1.3781739 1.9191077,1.3155626 1.9023925,1.2469571 c -0.00438,-0.019072 -0.012111,-0.040114 -0.016562,-0.046768 -0.01627,-0.024201 -0.018313,-0.024303 -0.2362607,-0.011827 -0.1124614,0.00642 -0.2051504,0.013724 -0.2104108,0.01654 -0.00511,0.00277 -0.028455,0.026944 -0.051802,0.053728 -0.07763,0.089178 -0.1597324,0.1540546 -0.2516846,0.1988772 -0.083715,0.040807 -0.1305629,0.05305 -0.21519696,0.056223 -0.058514,0.00219 -0.072085,0.00124 -0.10588026,-0.0073 -0.039326,-0.00994 -0.081708,-0.03033 -0.089814,-0.043193 -0.00511,-0.00833 0.010944,-0.030191 0.1909814,-0.2579088 C 1.0621871,1.0201372 1.1351914,0.92340544 1.1776252,0.85836843 c 0.017292,-0.02655 0.034729,-0.050839 0.038596,-0.053983 0.014665,-0.011747 0.084853,-0.030279 0.2150584,-0.056749 0.2616655,-0.053196 0.4396527,-0.097642 0.646058,-0.161331 l 0.045017,-0.013899 0.034875,0.00892 c 0.062235,0.01592 0.1361151,0.055559 0.2304457,0.1236782 0.039764,0.028732 0.071866,0.054035 0.2500868,0.19708101 0.1670868,0.13413566 0.2826782,0.20810006 0.364839,0.23345386 0.047862,0.014774 0.122902,0.027097 0.2022319,0.033226 0.078805,0.00606 0.2397482,0.0035 0.3310948,-0.0054 0.031227,-0.00299 0.057931,-0.0043 0.05939,-0.00292 0.00219,0.00248 0.020867,0.1409269 0.1153433,0.8687312 0.022399,0.1721934 0.039326,0.3143956 0.037721,0.3160044 -0.00438,0.00416 -0.6363834,0.1347537 -0.6391049,0.1320293 z"
       id="path852" />
  </g>
</svg>
