<svg width="14" height="12" viewBox="0 0 14 12" fill="none" xmlns="http://www.w3.org/2000/svg">
<path d="M9.75523 7.99539L10.5655 8.80571C10.525 9.5485 9.90378 10.1292 9.16099 10.1292H4.33958L2.74594 11.7364C2.6514 11.8444 2.51635 11.8984 2.3813 11.8984C2.08418 11.8984 1.85459 11.6553 1.85459 11.3717V10.1157C1.21984 9.98068 0.733643 9.41345 0.733643 8.73818V4.47049C0.733643 3.68718 1.36839 3.06593 2.1382 3.06593H2.98904V4.05182H2.1382C1.8951 4.05182 1.70603 4.2409 1.70603 4.47049V8.72468C1.70603 8.95427 1.8951 9.15685 2.1382 9.15685H2.84048V10.2643L3.94792 9.15685H9.1745C9.40409 9.15685 9.60667 8.96777 9.60667 8.72468V7.99539H9.75523ZM13.7663 1.40477V5.65896C13.7663 6.33423 13.2801 6.90145 12.6454 7.03651V8.29251C12.6454 8.44106 12.5778 8.57612 12.4833 8.68416C12.3753 8.76519 12.2402 8.81921 12.1052 8.81921C11.9701 8.81921 11.8351 8.76519 11.727 8.65715L10.1469 7.07702H5.32547C4.54216 7.07702 3.92091 6.44227 3.92091 5.67246V1.40477C3.92091 0.621458 4.55566 0.00021159 5.32547 0.00021159H12.3483C13.1316 -0.0132938 13.7663 0.621458 13.7663 1.40477ZM9.20151 5.14576C9.20151 5.02421 9.10697 4.92967 8.98542 4.92967H8.4182C8.29665 4.92967 8.20211 5.02421 8.20211 5.14576V5.5104C8.20211 5.63195 8.29665 5.72649 8.4182 5.72649H8.98542C9.10697 5.72649 9.20151 5.63195 9.20151 5.5104V5.14576ZM10.3225 2.64726C10.3225 2.2421 10.1874 1.91797 9.91729 1.67488C9.64718 1.43178 9.26903 1.31023 8.79635 1.31023C8.35067 1.31023 7.99953 1.41827 7.72942 1.62086C7.48632 1.80993 7.36478 2.06653 7.33777 2.40417C7.33777 2.4852 7.39179 2.55273 7.47282 2.55273L8.10757 2.56623C8.21562 2.56623 8.31015 2.4987 8.33716 2.40417C8.36417 2.32313 8.40469 2.25561 8.45871 2.20159C8.55325 2.12055 8.66129 2.08004 8.79635 2.08004C8.95841 2.08004 9.09346 2.13406 9.1745 2.2286C9.26903 2.32313 9.30955 2.45819 9.30955 2.63376C9.30955 2.79582 9.26903 2.93088 9.188 3.06593C9.10697 3.18748 9.01243 3.29552 8.87738 3.37655C8.62078 3.55212 8.44521 3.71419 8.33716 3.86275C8.25613 3.97079 8.21561 4.11935 8.20211 4.32193C8.1886 4.41647 8.26964 4.48399 8.36417 4.48399H9.05295C9.13398 4.48399 9.20151 4.42997 9.21501 4.34894C9.22852 4.2409 9.24202 4.15986 9.28254 4.09234C9.32305 3.9978 9.41759 3.90326 9.53914 3.82223C9.76873 3.70068 9.95781 3.53862 10.1064 3.33604C10.2549 3.11995 10.3225 2.89036 10.3225 2.64726Z" fill="#8D9CB5"/>
</svg>
