<svg width="13" height="13" viewBox="0 0 13 13" fill="none" xmlns="http://www.w3.org/2000/svg">
<path d="M11.6222 0.839844H1.37984C0.620315 0.839844 0 1.46016 0 2.21969V10.9614C0 11.723 0.620315 12.3413 1.37984 12.3413H11.6222C12.3817 12.3413 13 11.723 13 10.9614V4.00488C13 4.00488 13 4.00284 13 4.00079V2.21969C13 1.46016 12.3817 0.839844 11.6222 0.839844ZM10.9016 1.87984C11.2312 1.87984 11.4994 2.15008 11.4994 2.47969C11.4994 2.80929 11.2312 3.07748 10.9016 3.07748C10.572 3.07748 10.3038 2.80929 10.3038 2.47969C10.3038 2.15008 10.572 1.87984 10.9016 1.87984ZM9.07134 1.87984C9.40095 1.87984 9.66913 2.15008 9.66913 2.47969C9.66913 2.80929 9.40095 3.07748 9.07134 3.07748C8.74173 3.07748 8.4715 2.80929 8.4715 2.47969C8.4715 2.15008 8.74173 1.87984 9.07134 1.87984ZM7.2411 1.87984C7.57071 1.87984 7.8389 2.15008 7.8389 2.47969C7.8389 2.80929 7.57071 3.07748 7.2411 3.07748C6.90945 3.07748 6.64126 2.80929 6.64126 2.47969C6.64126 2.15008 6.90945 1.87984 7.2411 1.87984ZM12.6929 10.9614C12.6929 11.5531 12.2118 12.0342 11.6222 12.0342H1.37984C0.788189 12.0342 0.307087 11.5531 0.307087 10.9614V3.37638H3.66661L4.17228 4.09496C4.20094 4.13591 4.24803 4.15843 4.29921 4.15843H5.20614C5.21024 4.15843 5.21433 4.15638 5.21843 4.15638C5.24504 4.15843 5.2737 4.15843 5.30441 4.15843H12.6929V10.9614Z" fill="#8D9CB5"/>
<path d="M5.55823 9.85878V8.19847C5.55823 8.11453 5.62579 8.04492 5.71177 8.04492H6.6965C6.78043 8.04492 6.85004 8.11453 6.85004 8.19847V9.85878C6.85004 9.94476 6.78043 10.0123 6.6965 10.0123H5.71177C5.62579 10.0123 5.55823 9.94476 5.55823 9.85878Z" fill="#8D9CB5"/>
<path d="M11.8228 6.16526C11.8228 6.25125 11.7552 6.31881 11.6692 6.31881H8.48576C8.40182 6.31881 8.33221 6.25125 8.33221 6.16526C8.33221 6.08133 8.40182 6.01172 8.48576 6.01172H11.6692C11.7552 6.01172 11.8228 6.08133 11.8228 6.16526Z" fill="#8D9CB5"/>
<path d="M8.63932 10.5637C8.63932 10.6497 8.56971 10.7172 8.48577 10.7172H8.08451C7.99853 10.7172 7.93097 10.6497 7.93097 10.5637C7.93097 10.4798 7.99853 10.4102 8.08451 10.4102H8.48577C8.56971 10.4102 8.63932 10.4798 8.63932 10.5637Z" fill="#8D9CB5"/>
<path d="M9.12659 5.30784C9.12659 5.2239 9.19415 5.1543 9.28013 5.1543H11.6693C11.7552 5.1543 11.8228 5.2239 11.8228 5.30784C11.8228 5.39382 11.7552 5.46138 11.6693 5.46138H9.28013C9.19415 5.46138 9.12659 5.39382 9.12659 5.30784Z" fill="#8D9CB5"/>
<path d="M3.73206 9.85908V6.96018C3.73206 6.8742 3.79961 6.80664 3.8856 6.80664H4.87032C4.95426 6.80664 5.02387 6.8742 5.02387 6.96018V9.85908C5.02387 9.94507 4.95426 10.0126 4.87032 10.0126H3.8856C3.79961 10.0126 3.73206 9.94507 3.73206 9.85908Z" fill="#8D9CB5"/>
<path d="M7.58091 10.5637C7.58091 10.6497 7.5113 10.7172 7.42736 10.7172H1.40232C1.31839 10.7172 1.24878 10.6497 1.24878 10.5637C1.24878 10.4798 1.31839 10.4102 1.40232 10.4102H7.42736C7.5113 10.4102 7.58091 10.4798 7.58091 10.5637Z" fill="#8D9CB5"/>
<path d="M1.90594 9.85814V5.96018C1.90594 5.87625 1.9735 5.80664 2.05949 5.80664H3.04421C3.12815 5.80664 3.19776 5.87625 3.19776 5.96018V9.85814C3.19776 9.94412 3.12815 10.0117 3.04421 10.0117H2.05949C1.9735 10.0117 1.90594 9.94412 1.90594 9.85814Z" fill="#8D9CB5"/>
<path d="M8.33221 5.30784C8.33221 5.2239 8.40182 5.1543 8.48576 5.1543H8.77647C8.8604 5.1543 8.93001 5.2239 8.93001 5.30784C8.93001 5.39382 8.8604 5.46138 8.77647 5.46138H8.48576C8.40182 5.46138 8.33221 5.39382 8.33221 5.30784Z" fill="#8D9CB5"/>
<path d="M9.82882 8.43585C9.82882 8.68971 10.0356 8.89648 10.2874 8.89648C10.7112 8.89648 11.0551 9.24042 11.0551 9.66215C11.0551 10.0327 10.791 10.3418 10.4409 10.4135V10.5855C10.4409 10.6694 10.3734 10.739 10.2874 10.739C10.2035 10.739 10.1339 10.6694 10.1339 10.5855V10.4135C9.78582 10.3418 9.52173 10.0327 9.52173 9.66215C9.52173 9.57821 9.58929 9.5086 9.67527 9.5086C9.75921 9.5086 9.82882 9.57821 9.82882 9.66215C9.82882 9.91601 10.0356 10.1228 10.2874 10.1228C10.5413 10.1228 10.748 9.91601 10.748 9.66215C10.748 9.40829 10.5413 9.20357 10.2874 9.20357C9.86567 9.20357 9.52173 8.85963 9.52173 8.43585C9.52173 8.0653 9.78582 7.75616 10.1339 7.68451V7.52278C10.1339 7.43679 10.2035 7.36719 10.2874 7.36719C10.3734 7.36719 10.4409 7.43679 10.4409 7.52278V7.68451C10.791 7.75616 11.0551 8.0653 11.0551 8.43585C11.0551 8.51979 10.9855 8.58939 10.9016 8.58939C10.8176 8.58939 10.748 8.51979 10.748 8.43585C10.748 8.18199 10.5413 7.97522 10.2874 7.97522C10.0356 7.97522 9.82882 8.18199 9.82882 8.43585Z" fill="#8D9CB5"/>
</svg>
