<?xml version="1.0" encoding="UTF-8" standalone="no"?>
<!-- Created with Inkscape (http://www.inkscape.org/) -->

<svg
   width="3.698mm"
   height="3.704mm"
   viewBox="0 0 3.698 3.704"
   version="1.1"
   id="svg11973"
   inkscape:version="1.1.1 (3bf5ae0d25, 2021-09-20)"
   sodipodi:docname="Getting started.svg"
   xmlns:inkscape="http://www.inkscape.org/namespaces/inkscape"
   xmlns:sodipodi="http://sodipodi.sourceforge.net/DTD/sodipodi-0.dtd"
   xmlns="http://www.w3.org/2000/svg"
   xmlns:svg="http://www.w3.org/2000/svg">
  <sodipodi:namedview
     id="namedview11975"
     pagecolor="#ffffff"
     bordercolor="#999999"
     borderopacity="1"
     inkscape:pageshadow="0"
     inkscape:pageopacity="0"
     inkscape:pagecheckerboard="0"
     inkscape:document-units="mm"
     showgrid="false"
     inkscape:zoom="32.332954"
     inkscape:cx="8.273293"
     inkscape:cy="7.9330828"
     inkscape:window-width="1920"
     inkscape:window-height="991"
     inkscape:window-x="-9"
     inkscape:window-y="-9"
     inkscape:window-maximized="1"
     inkscape:current-layer="layer1"
     showborder="true" />
  <defs
     id="defs11970" />
  <g
     inkscape:label="Laag 1"
     inkscape:groupmode="layer"
     id="layer1">
    <path
       style="fill:#8d9cb5;fill-opacity:1;stroke-width:0.999998"
       d="m 2.0722627,3.4005078 -0.31021,-0.30648 -0.0836,0.077 c -0.10459,0.0963 -0.20628,0.10332 -0.30409,0.021 -0.0366,-0.0308 -0.0716,-0.056 -0.0777,-0.056 -0.006,0 -0.0435,0.0504 -0.0831,0.11194 -0.088,0.13709 -0.13479,0.14245 -0.25122004,0.0288 l -0.0852,-0.0832 -0.19669,0.19578 -0.1967,0.19578 -0.0538,-0.0573 -0.0538,-0.0573 0.19529,-0.1962 0.19529,-0.1962 -0.068,-0.0652 -0.068,-0.0652 -0.13954,0.13665 -0.13954,0.13665 -0.0491,-0.0613 -0.0491,-0.0613 0.13217,-0.13079 0.13217,-0.13079 -0.0887,-0.0962 c -0.11975,-0.12992 -0.11862,-0.1353 0.053,-0.2521 l 0.1081,-0.0736 -0.045,-0.0481 c -0.10795,-0.11525 -0.10646,-0.22737 0.005,-0.3452 l 0.069,-0.0732 -0.30894,-0.30953 -0.30894,-0.30953 0.12802,-0.11411 c 0.14605,-0.13017 0.42832,-0.27930003 0.62571,-0.33058001 0.0739,-0.0192 0.29099994,-0.0425 0.48249994,-0.0518 0.32347,-0.0157 0.3584,-0.0218 0.49254,-0.0852 0.0794,-0.0376 0.21394,-0.13017 0.29895,-0.20581 0.3809,-0.33886 0.76129,-0.50057 1.25356,-0.53291 0.23513,-0.0154 0.3084,-0.004 0.37233,0.0604 0.0385,0.0386 0.0442,0.075 0.0441,0.28488 -3.4e-4,0.50452 -0.16755,0.92511001 -0.53019,1.33354001 -0.23193,0.26122 -0.29774,0.45442 -0.29836,0.87584 -1.7e-4,0.12395 -0.0156,0.29086 -0.0343,0.3709 -0.0487,0.20852 -0.19469,0.48916 -0.3336,0.6414 l -0.11953,0.131 z m 0.38103,-0.0238 c 0.0885,-0.11615 0.18937,-0.34883 0.2252,-0.51957 0.0182,-0.0867 0.0365,-0.28651 0.0407,-0.44397 l 0.008,-0.28628 -0.42075,0.42032 -0.42076,0.42032 0.24022,0.24097 c 0.13212,0.13254 0.24744,0.24097 0.25626,0.24097 0.009,0 0.041,-0.0327 0.0715,-0.0728 z m -1.32022,-0.31032 0.0411,-0.0696 -0.22941004,-0.2302 -0.22941999,-0.23019 -0.0775,0.0457 -0.0775,0.0457 0.25341,0.25413 c 0.13937999,0.13977 0.25896003,0.25413 0.26574003,0.25413 0.007,0 0.0309,-0.0313 0.0535,-0.0696 z m 1.21399,-0.78672 c 0.44412,-0.44637 0.84025,-0.8602 0.88029,-0.91961 0.0963,-0.14289 0.21223,-0.39701003 0.2572,-0.56363001 0.0199,-0.0739 0.0424,-0.24128 0.05,-0.37199 l 0.0138,-0.23767 -0.0759,-0.0117 c -0.11704,-0.018 -0.44159,0.0215 -0.61445,0.0748 -0.17403,0.0537 -0.37378,0.14918 -0.52497,0.25096 -0.1137,0.0765 -1.70152003,1.64665001 -1.70152003,1.68254001 0,0.0232 0.87317003,0.90791 0.89602003,0.90791 0.007,0 0.37548,-0.36521 0.81961,-0.81158 z m 0.0493,-0.80099 c -0.0996,-0.0526 -0.16221,-0.13626 -0.19602,-0.26183 -0.078,-0.28964001 0.2167,-0.57056001 0.50034,-0.47696001 0.0998,0.0329 0.20512,0.11915 0.2488,0.20361998 0.05,0.0966 0.0413,0.28445003 -0.018,0.38857003 -0.0982,0.1726 -0.35353,0.24254 -0.53516,0.1466 z m 0.36761,-0.20047 c 0.11357,-0.12597 0.0706,-0.30671003 -0.0888,-0.37330001 -0.15228,-0.0636 -0.31979,0.0496 -0.31979,0.21616001 0,0.22101 0.26064,0.32126 0.40859,0.15714 z m -1.59715,0.12469 0.41176,-0.41222003 -0.32243,0.0111 c -0.45054003,0.0155 -0.67524003,0.0778 -0.91308003,0.25304 l -0.0981,0.0723 0.24324,0.244 c 0.13378,0.1342 0.24855,0.244 0.25505,0.244 0.006,0 0.19708999,-0.1855 0.42356003,-0.41221 z m -1.11100003,2.00235 -0.0495,-0.0615 0.0557,-0.0523 0.0557,-0.0523 0.0558,0.0558 0.0558,0.0558 -0.062,0.0581 -0.062,0.0581 z"
       id="path5263"
       inkscape:export-filename="C:\Users\Gebruiker\Desktop\Robin\AUDIT.ONE\Getting started icon.svg"
       inkscape:export-xdpi="69.980003"
       inkscape:export-ydpi="69.980003" />
  </g>
</svg>
