<svg width="13" height="14" viewBox="0 0 13 14" fill="none" xmlns="http://www.w3.org/2000/svg">
<path d="M5.42248 2.08008C5.38944 2.08008 5.35639 2.09109 5.32335 2.12413L1.82096 5.64855C1.7659 5.70362 1.7659 5.80274 1.82096 5.85781L5.19119 9.26108C5.21321 9.2831 5.24626 9.30513 5.29031 9.30513C5.32335 9.30513 5.35639 9.29412 5.38944 9.26108L8.89182 5.73666C8.94689 5.68159 8.94689 5.58247 8.89182 5.5274L5.5216 2.12413C5.48856 2.10211 5.45552 2.08008 5.42248 2.08008Z" fill="#8D9CB5"/>
<path d="M6.09436 2.02458L9.002 4.96527L10.4008 3.94098C10.566 3.81983 10.6761 3.6326 10.6871 3.42334C10.6981 3.21407 10.632 3.01583 10.4779 2.86163L8.15394 0.526706C8.01076 0.383527 7.8015 0.30643 7.60325 0.317444C7.39399 0.339472 7.20675 0.438596 7.0856 0.614817L6.09436 2.02458Z" fill="#8D9CB5"/>
<path d="M1.71084 6.41797L0.301075 7.44225C0.135868 7.5634 0.0257297 7.75064 0.00370206 7.9599C-0.0183255 8.16916 0.0587711 8.37843 0.212964 8.5216L2.53688 10.8565C2.68006 10.9997 2.8783 11.0768 3.08757 11.0658C3.29683 11.0548 3.48406 10.9446 3.60521 10.7794L4.6295 9.35865L1.71084 6.41797Z" fill="#8D9CB5"/>
<path d="M7.5592 7.9375L11.4911 13.3783L13 11.8364L7.5592 7.9375Z" fill="#8D9CB5"/>
<path d="M0.466309 13.9744H4.90487V13.2695H0.466309V13.9744Z" fill="#8D9CB5"/>
</svg>
