<?xml version="1.0" encoding="UTF-8" standalone="no"?>
<!-- Created with Inkscape (http://www.inkscape.org/) -->

<svg
   width="3.698mm"
   height="3.704mm"
   viewBox="0 0 3.698 3.704"
   version="1.1"
   id="svg11973"
   inkscape:version="1.1.1 (3bf5ae0d25, 2021-09-20)"
   sodipodi:docname="Home.svg"
   inkscape:export-filename="C:\Users\Gebruiker\Desktop\Robin\AUDIT.ONE\Github Screens\Networks.png"
   inkscape:export-xdpi="69.980003"
   inkscape:export-ydpi="69.980003"
   xmlns:inkscape="http://www.inkscape.org/namespaces/inkscape"
   xmlns:sodipodi="http://sodipodi.sourceforge.net/DTD/sodipodi-0.dtd"
   xmlns="http://www.w3.org/2000/svg"
   xmlns:svg="http://www.w3.org/2000/svg">
  <sodipodi:namedview
     id="namedview11975"
     pagecolor="#ffffff"
     bordercolor="#999999"
     borderopacity="1"
     inkscape:pageshadow="0"
     inkscape:pageopacity="0"
     inkscape:pagecheckerboard="0"
     inkscape:document-units="mm"
     showgrid="false"
     inkscape:zoom="32.332954"
     inkscape:cx="11.629002"
     inkscape:cy="8.1805083"
     inkscape:window-width="1920"
     inkscape:window-height="991"
     inkscape:window-x="-9"
     inkscape:window-y="-9"
     inkscape:window-maximized="1"
     inkscape:current-layer="layer1"
     showborder="true" />
  <defs
     id="defs11970" />
  <g
     inkscape:label="Laag 1"
     inkscape:groupmode="layer"
     id="layer1">
    <path
       style="fill:#8d9cb5;fill-opacity:1;stroke-width:0.999998"
       d="m 2.0722627,-0.74249401 -0.31021,-0.30647999 -0.0836,0.077 c -0.10459,0.0963 -0.20628,0.10332 -0.30409,0.021 -0.0366,-0.0308 -0.0716,-0.056 -0.0777,-0.056 -0.006,0 -0.0435,0.0504 -0.0831,0.11193999 -0.088,0.13709 -0.13479,0.14245 -0.25122004,0.0288 l -0.0852,-0.0832 -0.19669,0.19578 -0.1967,0.19578 -0.0538,-0.0573 -0.0538,-0.0573 0.19529,-0.1962 0.19529,-0.19619999 -0.068,-0.0652 -0.068,-0.0652 -0.13954,0.13665 -0.13954,0.13664999 -0.0491,-0.0613 -0.0491,-0.0613 0.13217,-0.13079 0.13217,-0.13079 -0.0887,-0.0962 c -0.11975,-0.12992 -0.11862,-0.1353 0.053,-0.2521 l 0.1081,-0.0736 -0.045,-0.0481 c -0.10795,-0.11525 -0.10646,-0.22737 0.005,-0.3452 l 0.069,-0.0732 -0.30894,-0.30953 -0.30894,-0.30953 0.12802,-0.11411 c 0.14605,-0.13017 0.42832,-0.2793 0.62571,-0.33058 0.0739,-0.0192 0.29099994,-0.0425 0.48249994,-0.0518 0.32347,-0.0157 0.3584,-0.0218 0.49254,-0.0852 0.0794,-0.0376 0.21394,-0.13017 0.29895,-0.20581 0.3809,-0.33886 0.76129,-0.50057 1.25356,-0.53291 0.23513,-0.0154 0.3084,-0.004 0.37233,0.0604 0.0385,0.0386 0.0442,0.075 0.0441,0.28488 -3.4e-4,0.50452 -0.16755,0.92511 -0.53019,1.33354 -0.23193,0.26122 -0.29774,0.45442 -0.29836,0.87584 -1.7e-4,0.12395 -0.0156,0.29086 -0.0343,0.3709 -0.0487,0.20851999 -0.19469,0.48915999 -0.3336,0.64139999 l -0.11953,0.131 z m 0.38103,-0.0238 c 0.0885,-0.11615 0.18937,-0.34882999 0.2252,-0.51956999 0.0182,-0.0867 0.0365,-0.28651 0.0407,-0.44397 l 0.008,-0.28628 -0.42075,0.42032 -0.42076,0.42032 0.24022,0.24096999 c 0.13212,0.13254 0.24744,0.24097 0.25626,0.24097 0.009,0 0.041,-0.0327 0.0715,-0.0728 z m -1.32022,-0.31031999 0.0411,-0.0696 -0.22941004,-0.2302 -0.22941999,-0.23019 -0.0775,0.0457 -0.0775,0.0457 0.25341,0.25413 c 0.13937999,0.13977 0.25896003,0.25413 0.26574003,0.25413 0.007,0 0.0309,-0.0313 0.0535,-0.0696 z m 1.21399,-0.78672 c 0.44412,-0.44637 0.84025,-0.8602 0.88029,-0.91961 0.0963,-0.14289 0.21223,-0.39701 0.2572,-0.56363 0.0199,-0.0739 0.0424,-0.24128 0.05,-0.37199 l 0.0138,-0.23767 -0.0759,-0.0117 c -0.11704,-0.018 -0.44159,0.0215 -0.61445,0.0748 -0.17403,0.0537 -0.37378,0.14918 -0.52497,0.25096 -0.1137,0.0765 -1.70152003,1.64665 -1.70152003,1.68254 0,0.0232 0.87317003,0.90791 0.89602003,0.90791 0.007,0 0.37548,-0.36521 0.81961,-0.81158 z m 0.0493,-0.80099 c -0.0996,-0.0526 -0.16221,-0.13626 -0.19602,-0.26183 -0.078,-0.28964 0.2167,-0.57056 0.50034,-0.47696 0.0998,0.0329 0.20512,0.11915 0.2488,0.20362 0.05,0.0966 0.0413,0.28445 -0.018,0.38857 -0.0982,0.1726 -0.35353,0.24254 -0.53516,0.1466 z m 0.36761,-0.20047 c 0.11357,-0.12597 0.0706,-0.30671 -0.0888,-0.3733 -0.15228,-0.0636 -0.31979,0.0496 -0.31979,0.21616 0,0.22101 0.26064,0.32126 0.40859,0.15714 z m -1.59715,0.12469 0.41176,-0.41222 -0.32243,0.0111 c -0.45054003,0.0155 -0.67524003,0.0778 -0.91308003,0.25304 l -0.0981,0.0723 0.24324,0.244 c 0.13378,0.1342 0.24855,0.244 0.25505,0.244 0.006,0 0.19708999,-0.1855 0.42356003,-0.41221 z m -1.11100003,2.00234999 -0.0495,-0.0615 0.0557,-0.0523 0.0557,-0.0523 0.0558,0.0558 0.0558,0.0558 -0.062,0.0581 -0.062,0.0581 z"
       id="path5263"
       inkscape:export-filename="C:\Users\Gebruiker\Desktop\Robin\AUDIT.ONE\Getting started icon.svg"
       inkscape:export-xdpi="69.980003"
       inkscape:export-ydpi="69.980003" />
    <path
       style="fill:#8d9cb5;fill-opacity:1;stroke-width:1"
       d="M 6.1057614,3.5700252 C 5.8822254,3.4492148 5.8816374,3.4485876 5.8815484,3.3306246 5.8814614,3.2143973 5.8773484,3.209617 5.6427804,3.0542494 L 5.4041015,2.8961463 5.2277365,2.993378 c -0.097,0.05348 -0.189215,0.097232 -0.204919,0.097232 -0.0157,0 -0.128841,-0.053996 -0.251412,-0.1199891 l -0.222858,-0.1199891 0.0083,-0.2433259 0.0083,-0.2433259 0.202516,-0.1180304 0.202515,-0.1180304 V 1.8430044 1.558089 L 4.7609805,1.4429615 4.5517815,1.327834 4.5512345,1.090943 c -6.23e-4,-0.26683534 -0.01917,-0.24316644 0.334993,-0.42744597 l 0.147491,-0.0767431 0.228183,0.13059106 c 0.143468,0.082103 0.2337099,0.1529819 0.2430729,0.19090464 0.01422,0.0576019 0.02301,0.0552142 0.195709,-0.0531138 L 5.8815014,0.74170445 V 0.51417991 0.28665636 l 0.231446,-0.13226245 0.231446,-0.13226245 0.231446,0.13226245 0.231447,0.13226245 v 0.22752355 0.22752454 l 0.180817,0.11357502 c 0.163497,0.10269664 0.181684,0.10825868 0.189868,0.0580675 0.0092,-0.0563932 0.428722,-0.31848284 0.503123,-0.31431081 0.02063,0.001189 0.128643,0.0564923 0.240027,0.12296629 l 0.202515,0.12086293 0.0081,0.24248672 0.0081,0.2424868 -0.210629,0.1153653 -0.210629,0.1153653 v 0.2846777 0.2846766 l 0.202516,0.1180304 0.202515,0.1180304 0.0083,0.243326 0.0083,0.2433259 -0.222858,0.1199891 c -0.122572,0.065993 -0.236958,0.1198276 -0.254192,0.1196304 -0.01723,-2.169e-4 -0.108502,-0.0439 -0.202817,-0.097123 L 7.2888604,2.896367 7.0480794,3.0551219 c -0.236529,0.1559492 -0.240783,0.1608296 -0.240811,0.2762692 -2.8e-5,0.1173052 -4.37e-4,0.1177342 -0.227799,0.2393333 -0.125275,0.066994 -0.232667,0.1215079 -0.238651,0.1211274 -0.006,-4.329e-4 -0.111735,-0.055194 -0.235003,-0.121818 z m 0.180699,-0.1712879 c -2.9e-5,-0.1503019 -1.97e-4,-0.1505754 -0.141685,-0.2293049 -0.07791,-0.043355 -0.150181,-0.078824 -0.160602,-0.078824 -0.01042,0 -0.01501,0.067717 -0.0102,0.1504803 0.0086,0.1482481 0.01089,0.1516414 0.153399,0.2286352 0.07956,0.042988 0.147908,0.078457 0.151886,0.078824 0.004,3.25e-4 0.0072,-0.067044 0.0072,-0.1498105 z M 6.7147304,3.24109 c 0.0048,-0.082767 2.19e-4,-0.1504803 -0.0102,-0.1504803 -0.01042,0 -0.08269,0.035469 -0.160601,0.078824 l -0.141656,0.078824 -2.9e-5,0.1522993 -2.9e-5,0.1523003 0.151887,-0.080647 c 0.150902,-0.080122 0.151943,-0.081618 0.160631,-0.2311239 z M 6.5243134,3.0730775 6.6734204,2.9982168 6.5595144,2.9292115 C 6.3794684,2.8201324 6.3329294,2.8178963 6.1709604,2.9105458 l -0.146267,0.083668 0.138131,0.076169 c 0.171213,0.094408 0.178713,0.094467 0.361489,0.00267 z m -0.642855,-0.06313 c 0,-0.034518 0.06805,-0.08992 0.202446,-0.1648114 l 0.202446,-0.1128152 7e-5,-0.2051931 6.9e-5,-0.2051932 -0.178887,-0.099547 -0.178887,-0.099547 -0.211678,0.145799 -0.211679,0.145797 3.83e-4,0.2162677 3.83e-4,0.2162677 0.165966,0.1071629 c 0.189503,0.12236 0.209362,0.1276535 0.209362,0.055809 z m 1.132967,-0.055492 0.168412,-0.1074869 2.19e-4,-0.216876 2.18e-4,-0.216877 -0.210687,-0.1457405 -0.210687,-0.1457406 -0.179878,0.100099 -0.179878,0.1000979 6.9e-5,0.2051931 6.9e-5,0.2051932 0.202446,0.1128151 c 0.134397,0.07489 0.202447,0.1302928 0.202447,0.1648114 0,0.071294 0.0147,0.067361 0.207181,-0.055492 z M 4.9846045,2.8067108 c 0,-0.1404589 -1.31e-4,-0.140655 -0.158681,-0.2293039 -0.08727,-0.048794 -0.166068,-0.088721 -0.175096,-0.088721 -0.009,0 -0.01248,0.066945 -0.0077,0.1487544 0.0084,0.1423294 0.01437,0.1521358 0.138933,0.227051 0.185183,0.1113706 0.202516,0.1064268 0.202516,-0.05778 z m 0.263695,0.064369 0.141336,-0.076218 v -0.155858 -0.155858 l -0.151886,0.084857 c -0.149503,0.08352 -0.152024,0.087166 -0.160632,0.232071 -0.0048,0.080974 -6.1e-5,0.1472168 0.01055,0.1472168 0.01061,0 0.0829,-0.0343 0.160631,-0.076208 z m 2.3632849,-0.071007 c -0.0086,-0.1449063 -0.01113,-0.1485493 -0.160631,-0.232071 L 7.2990674,2.4831445 V 2.638738 2.7943305 l 0.137421,0.075782 c 0.07558,0.041681 0.147866,0.076099 0.160631,0.076476 0.01277,4.33e-4 0.01928,-0.065548 0.01446,-0.1465202 z m 0.295028,0.064418 c 0.125127,-0.075247 0.130534,-0.084194 0.139037,-0.2299727 0.0049,-0.083421 -0.0016,-0.1470622 -0.01447,-0.1414249 -0.01282,0.00565 -0.09166,0.045862 -0.175199,0.089395 l -0.151887,0.079141 v 0.1428307 c 0,0.1666552 0.0169,0.1716634 0.202515,0.060029 z M 5.1571035,2.5035617 c 0.0779,-0.039115 0.148356,-0.081865 0.156557,-0.095022 0.0082,-0.013147 -0.0536,-0.060624 -0.137332,-0.1054985 l -0.152245,-0.081598 -0.149928,0.080845 c -0.08246,0.044465 -0.14989,0.088474 -0.149844,0.097787 6.2e-5,0.012602 0.216302,0.1434162 0.282953,0.1711759 0.0045,0.00188 0.07193,-0.028593 0.149839,-0.067698 z m 2.6699499,-0.014088 c 0.07558,-0.038253 0.137421,-0.078289 0.137421,-0.088979 0,-0.01069 -0.06879,-0.055115 -0.15286,-0.098728 l -0.152862,-0.079289 -0.154568,0.087463 -0.15457,0.087463 0.155544,0.088355 c 0.08555,0.048596 0.162053,0.084956 0.170009,0.080805 0.008,-0.00416 0.07631,-0.038837 0.151886,-0.07708 z M 5.7309034,2.1379551 5.8841214,2.026317 5.8755214,1.8494205 5.8669214,1.672525 5.6367324,1.5229889 5.4065425,1.3734528 5.2389335,1.4647398 5.0713255,1.5560268 V 1.8441879 2.132349 l 0.180817,0.104153 c 0.204593,0.1178481 0.17267,0.1244197 0.4786889,-0.098549 z m 1.792378,0.047576 0.09402,-0.053173 V 1.8441914 1.5560263 l -0.168148,-0.091584 -0.168148,-0.091584 -0.238227,0.1580179 -0.238227,0.1580178 0.0086,0.1762803 0.0086,0.1762812 0.215308,0.1508855 0.215309,0.1508845 0.08847,-0.052262 c 0.04866,-0.028741 0.130776,-0.076188 0.182491,-0.1054331 z m -1.236821,-0.133965 c -2.9e-5,-0.1503029 -1.97e-4,-0.1505744 -0.141685,-0.2293049 -0.07791,-0.043355 -0.150181,-0.078824 -0.160602,-0.078824 -0.01042,0 -0.01501,0.067717 -0.0102,0.1504813 0.0086,0.1482481 0.01089,0.1516414 0.153399,0.2286342 0.07956,0.042988 0.147908,0.078457 0.151886,0.078824 0.004,3.249e-4 0.0072,-0.067044 0.0072,-0.1498116 z m 0.42827,-0.1576473 c 0.0048,-0.082767 2.19e-4,-0.1504812 -0.0102,-0.1504812 -0.01042,0 -0.08269,0.035469 -0.160601,0.078824 l -0.141656,0.078824 -2.9e-5,0.1523002 -3e-5,0.1522993 0.151887,-0.080647 c 0.150902,-0.080121 0.151943,-0.081618 0.160631,-0.2311239 z m -0.192785,-0.1697403 0.142029,-0.076585 -0.138113,-0.080567 c -0.171032,-0.099775 -0.191975,-0.099783 -0.362781,-1.08e-4 l -0.137874,0.080429 0.137874,0.07603 c 0.171676,0.094666 0.184801,0.094695 0.358865,8.669e-4 z m -0.404378,-0.2458732 0.171123,-0.09316 -0.0083,-0.2006407 -0.0083,-0.20064063 -0.161596,-0.0837972 -0.161597,-0.0837972 -0.221736,0.13692291 C 5.5084954,1.0882204 5.5054284,1.0917623 5.5057364,1.2089674 c 3.06e-4,0.1155466 0.0057,0.1222123 0.195283,0.2397097 0.107234,0.066469 0.206338,0.12129 0.220231,0.121818 0.01389,5.41e-4 0.102265,-0.040957 0.196383,-0.092199 z m 0.865963,-0.028662 c 0.194525,-0.1188894 0.199325,-0.1246763 0.199566,-0.2406697 2.19e-4,-0.1171863 -0.0029,-0.1207689 -0.221489,-0.25577466 l -0.221737,-0.13692291 -0.161596,0.0837972 -0.161596,0.0837972 -0.0082,0.20064067 -0.0082,0.2006407 0.167368,0.092486 c 0.09205,0.050865 0.178458,0.092783 0.192014,0.09315 0.01356,3.25e-4 0.114341,-0.054144 0.223966,-0.1211463 z M 4.9846045,1.2875662 c 0,-0.1404589 -1.31e-4,-0.1406551 -0.158681,-0.229304 -0.08727,-0.048794 -0.166068,-0.0887211 -0.175096,-0.0887211 -0.009,0 -0.01248,0.0677175 -0.0077,0.1504803 0.0086,0.1482481 0.01089,0.1516404 0.153399,0.2286352 0.07956,0.042988 0.154418,0.078457 0.166352,0.078824 0.01193,3.25e-4 0.0217,-0.062595 0.0217,-0.139909 z m 0.263317,0.061753 0.141655,-0.078824 2.9e-5,-0.1523002 2.9e-5,-0.15230027 -0.151886,0.0806467 c -0.150902,0.080121 -0.151944,0.081618 -0.160632,0.2311229 -0.0048,0.082767 -2.18e-4,0.1504812 0.0102,0.1504812 0.01042,0 0.08269,-0.035469 0.160602,-0.078824 z m 2.3636629,-0.071661 c -0.0087,-0.1495054 -0.0097,-0.1510034 -0.160631,-0.2311229 l -0.151886,-0.0806466 1.1e-4,0.1523002 c 1.09e-4,0.1515681 7.65e-4,0.1526748 0.137421,0.2303016 0.07552,0.042899 0.147747,0.078368 0.160513,0.078824 0.01276,4.339e-4 0.01928,-0.066895 0.01447,-0.149659 z m 0.280563,0.070987 c 0.142508,-0.076991 0.144785,-0.080389 0.153399,-0.2286352 0.0048,-0.082767 0.0014,-0.15048023 -0.0077,-0.15048023 -0.009,0 -0.08782,0.039927 -0.175097,0.0887212 -0.158546,0.088652 -0.158681,0.08884 -0.158681,0.2293039 0,0.077318 0.0098,0.1402776 0.0217,0.139909 0.01193,-3.25e-4 0.08679,-0.035835 0.166352,-0.078824 z M 5.3097955,0.88573992 c 0.01178,-0.0103632 -0.04896,-0.0565616 -0.134979,-0.10265999 l -0.156396,-0.083817 -0.139202,0.0758415 c -0.07656,0.0417104 -0.142916,0.0868784 -0.147455,0.10036938 -0.0045,0.0134939 0.06026,0.0582855 0.143993,0.0995471 l 0.152244,0.0750192 0.130189,-0.0727306 c 0.0716,-0.0399964 0.139827,-0.0812114 0.151606,-0.0915745 z m 2.6546789,-0.005746 c 0,-0.0253433 -0.256077,-0.1686317 -0.300184,-0.16796889 -0.01789,2.7047e-4 -0.09552,0.0372322 -0.172516,0.0821526 l -0.139996,0.0816572 0.152239,0.0870865 0.152241,0.0870766 0.154108,-0.0748805 c 0.08476,-0.0411853 0.154108,-0.0839953 0.154108,-0.0951214 z M 6.2864894,0.72634988 V 0.56918606 l -0.143692,-0.0721361 c -0.07903,-0.0396793 -0.150634,-0.0721361 -0.159119,-0.0721361 -0.0085,0 -0.01543,0.0632491 -0.01543,0.14054805 0,0.13937599 0.0013,0.14127525 0.151886,0.22769197 0.08354,0.0479322 0.155142,0.0878692 0.15912,0.0887509 0.004,8.8771e-4 0.0072,-0.0691143 0.0072,-0.15555188 z m 0.428241,-0.15733522 c 0.0048,-0.0792596 0.0011,-0.14410879 -0.0082,-0.14410879 -0.0093,0 -0.0816,0.0324667 -0.160631,0.0721361 l -0.143692,0.0721361 v 0.1577444 0.15774342 l 0.151886,-0.0857787 c 0.148602,-0.0839161 0.152076,-0.0888896 0.160632,-0.22988449 z m -0.194008,-0.16905079 0.145391,-0.0822714 -0.160881,-0.0899596 -0.160881,-0.0899596 -0.161558,0.0903361 -0.161558,0.0903361 0.13986,0.0788138 c 0.07692,0.0433451 0.156594,0.0802008 0.177048,0.0818851 0.02045,0.001684 0.102614,-0.0339429 0.182579,-0.0791902 z"
       id="path1620" />
    <path
       style="fill:#8d9cb5;fill-opacity:1;stroke-width:0.999994"
       d="M -3.9487047,3.3137771 C -4.109001,3.2922381 -4.2392385,3.1782817 -4.2881294,3.0167651 -4.3021844,2.9704605 -4.3028742,2.9148078 -4.3028742,1.9581344 V 0.94836354 l 0.018625,-0.054502 c 0.038716,-0.11324987 0.1130266,-0.19885667 0.214904,-0.24748087 0.051823,-0.0246785 0.3281893,-0.10008243 1.7755213,-0.48414877 0.081916,-0.0217138 0.2323133,-0.0620882 0.3341649,-0.0896093 0.135368,-0.0366251 0.1992883,-0.0501415 0.2375386,-0.0502287 0.1063527,-3.2264e-4 0.1953477,0.0561585 0.2432901,0.1546014 l 0.026472,0.0543271 0.00259,0.16918176 0.00259,0.16919047 H -1.5846569 -1.7221376 V 0.43225508 0.29482377 l -0.066395,0.0185745 c -0.03656,0.0102899 -0.3653705,0.0980767 -0.7307409,0.19516811 -0.3653791,0.0970913 -0.6806171,0.18144236 -0.7005528,0.18745066 -0.030869,0.00933 0.1027828,0.010988 0.8941242,0.011511 0.7974204,6.191e-4 0.9369446,0.00262 0.9764712,0.012644 0.1616329,0.042555 0.2839634,0.18515727 0.3039939,0.35431283 0.00517,0.044386 0.00776,0.3984634 0.00517,0.9853455 -0.00259,0.8619191 -0.00345,0.9187664 -0.017159,0.9609028 -0.044321,0.1348676 -0.1453101,0.2370166 -0.2789449,0.2821876 -0.042165,0.014214 -0.1043781,0.014999 -1.3044622,0.016132 -0.6931028,6.19e-4 -1.2819569,-0.00174 -1.3085839,-0.00523 z m 2.5361745,-0.2775309 c 0.041303,-0.011598 0.08114,-0.052409 0.092384,-0.094641 0.00604,-0.023719 0.00862,-0.2991049 0.0069,-0.9488077 l -0.00259,-0.9153393 -0.021384,-0.032701 c -0.042596,-0.065228 0.075363,-0.060082 -1.3447993,-0.057728 l -1.2668585,0.00262 -0.026299,0.01901 c -0.05829,0.041945 -0.053978,-0.03244 -0.056306,0.9853543 -0.00172,0.6285561 6.209e-4,0.9248443 0.00604,0.9469851 0.00517,0.01779 0.018366,0.043252 0.030352,0.056681 0.04458,0.050141 -0.029058,0.047438 1.3181551,0.047787 0.8704807,2.18e-4 1.2413439,-0.00262 1.2638319,-0.00872 z M -1.83087,2.2155304 c -0.097221,-0.02494 -0.1598825,-0.1050792 -0.1599084,-0.2044639 -6.03e-5,-0.2283226 0.3179887,-0.2813766 0.3932564,-0.065577 0.034577,0.099193 -0.016642,0.217082 -0.1119833,0.2572127 -0.033629,0.014214 -0.092073,0.020405 -0.1213647,0.012906 z"
       id="path295329" />
    <path
       style="fill:#8d9cb5;fill-opacity:1;stroke-width:0.999997"
       d="M 0.65759535,3.6519961 C 0.58319899,3.6292505 0.53896871,3.5798888 0.52475899,3.5037515 0.52139364,3.4857497 0.51953135,3.2165905 0.51953135,2.7575169 V 2.0394406 L 0.38230767,2.0394093 C 0.30683502,2.0393937 0.23097015,2.0370729 0.21371924,2.0342498 0.16496205,2.0262769 0.12048236,2.0018131 0.09650397,1.9697873 0.04776137,1.9046774 0.04446027,1.8305242 0.08704165,1.7571529 0.09932903,1.7359805 0.30979082,1.5218772 0.88535672,0.94502556 1.3152527,0.51416889 1.6865871,0.14433139 1.7105447,0.12316433 1.771339,0.06945402 1.8008455,0.05585049 1.8593064,0.05459177 c 0.043418,-9.3806e-4 0.048022,6.035e-5 0.083642,0.01805432 0.034627,0.01749652 0.062021,0.04316742 0.3370715,0.31595012 0.1646598,0.1632983 0.3028641,0.29690615 0.3071202,0.29690615 0.00419,0 0.00779,-0.001801 0.00779,-0.003991 0,-0.0022 0.00253,-0.0592426 0.00555,-0.12676851 0.00691,-0.15526234 0.013687,-0.17782665 0.067093,-0.22579084 0.045725,-0.0410549 0.066723,-0.0452507 0.229241,-0.0457968 0.1281268,-4.3077e-4 0.1434855,4.7701e-4 0.1755279,0.0103745 0.049025,0.0151407 0.084586,0.0451212 0.108103,0.0911244 l 0.018292,0.0357923 0.00263,0.43442158 c 0.00243,0.40214821 0.00331,0.43595491 0.011925,0.45506181 0.00613,0.013625 0.068582,0.08025 0.183713,0.1960337 0.2634631,0.2649654 0.2661781,0.2685908 0.2663738,0.3557439 9.15e-5,0.040564 -0.00146,0.047313 -0.017552,0.077477 -0.021378,0.040014 -0.053853,0.06975 -0.093445,0.085565 -0.027715,0.011071 -0.039251,0.011959 -0.188962,0.01455 l -0.15944,0.00276 -0.00263,0.7370863 c -0.00234,0.6717854 -0.00341,0.7390016 -0.011322,0.7587061 -0.025681,0.063767 -0.068222,0.10037 -0.1350531,0.1161948 -0.029555,0.007 -0.6775132,0.00829 -0.6817976,0.00136 -0.00156,-0.0026 -0.00312,-0.2608118 -0.00331,-0.5737996 C 2.3694933,2.5564366 2.3686971,2.509906 2.3603271,2.478417 2.333855,2.3798884 2.267648,2.3138641 2.1628461,2.2814864 2.1351017,2.2729197 2.1074351,2.272063 1.8552976,2.272063 H 1.5782368 L 1.5393948,2.286448 C 1.4681058,2.312851 1.4150686,2.358791 1.3832832,2.421656 1.3502532,2.486982 1.3510222,2.470935 1.3509242,3.0941839 L 1.3507425,3.6601576 1.0148712,3.6593413 C 0.76325619,3.6587287 0.67364458,3.6568881 0.65765113,3.6520012 Z"
       id="path5925" />
  </g>
</svg>
