<svg width="13" height="13" viewBox="0 0 13 13" fill="none" xmlns="http://www.w3.org/2000/svg">
<path d="M12.7427 5.26093L7.34298 0.763152C7.10759 0.561812 6.80802 0.451172 6.49826 0.451172C6.18851 0.451172 5.88894 0.561812 5.65355 0.763152L5.2 1.14132C3.55303 2.51539 1.90302 3.8899 0.249976 5.26483C0.168765 5.32923 0.103859 5.41185 0.0605109 5.506C0.0171627 5.60014 -0.00340918 5.70317 0.000460276 5.80675C0.000460276 6.06666 0.000460276 6.32657 0.000460276 6.59428C0.000460276 6.90488 0.0927291 6.99195 0.407223 6.98415C0.778897 6.98415 1.14927 6.98415 1.52095 6.98415C1.70029 6.98415 1.73277 7.01794 1.73407 7.19858V9.24798C1.73407 9.8917 1.73407 10.535 1.73407 11.1778C1.73407 11.7392 2.07196 12.0797 2.63597 12.0784C3.36026 12.0784 4.08368 12.0784 4.80624 12.0784C4.8572 12.0786 4.90809 12.0743 4.95828 12.0654V9.15702H8.03954V12.0654C8.08716 12.0738 8.13545 12.0777 8.18379 12.0771C8.92065 12.0771 9.6588 12.0771 10.393 12.0771C10.5094 12.084 10.6259 12.066 10.7348 12.0245C10.8437 11.983 10.9426 11.9189 11.0249 11.8364C11.1072 11.7538 11.171 11.6548 11.2122 11.5457C11.2534 11.4367 11.2709 11.3202 11.2638 11.2038V7.21287C11.2638 7.02184 11.2936 6.98935 11.4821 6.98935C11.8719 6.98935 12.2709 6.98935 12.666 6.98935C12.7113 6.99634 12.7576 6.99249 12.8011 6.97812C12.8446 6.96374 12.8841 6.93925 12.9163 6.90665C12.9485 6.87406 12.9726 6.83428 12.9864 6.7906C13.0003 6.74692 13.0036 6.70057 12.9961 6.65536C12.9961 6.36426 12.9961 6.07316 12.9961 5.78076C12.9968 5.68043 12.9743 5.58128 12.9304 5.4911C12.8864 5.40091 12.8222 5.32213 12.7427 5.26093Z" fill="#8D9CB5"/>
<path d="M8.73487 1.45788C9.12473 1.77887 9.5146 2.10766 9.90447 2.42865L10.9168 3.27726C10.9168 2.47673 10.9168 1.71779 10.9168 0.948451C10.9121 0.842048 10.866 0.741711 10.7883 0.668866C10.7106 0.596021 10.6075 0.556442 10.501 0.558582C10.0175 0.550785 9.5341 0.550785 9.05066 0.558582C8.99397 0.5581 8.93778 0.569325 8.88563 0.591554C8.83347 0.613784 8.78647 0.646539 8.74755 0.68777C8.70864 0.729002 8.67866 0.777822 8.65948 0.831174C8.6403 0.884527 8.63234 0.941264 8.6361 0.997834C8.6361 1.0875 8.6426 1.17717 8.6361 1.26554C8.63405 1.30348 8.64211 1.34128 8.65947 1.37507C8.67682 1.40887 8.70284 1.43744 8.73487 1.45788Z" fill="#8D9CB5"/>
</svg>
