<svg width="13" height="14" viewBox="0 0 13 14" fill="none" xmlns="http://www.w3.org/2000/svg">
<rect x="1.55774" y="1.64844" width="9.88449" height="11.6817" fill="#8D9CB5"/>
<path fill-rule="evenodd" clip-rule="evenodd" d="M1.13845 13.5305V12.4195C1.13845 12.1607 1.34876 11.95 1.60798 11.95C1.86662 11.95 2.07751 12.1607 2.07751 12.4195V13.0609H11.4018V1.71661H2.07751V2.30343C2.07751 2.56245 1.86662 2.77296 1.60798 2.77296C1.34876 2.77296 1.13845 2.56245 1.13845 2.30343V1.24689C1.13845 0.988253 1.34876 0.777367 1.60798 0.777367H11.8713C12.1302 0.777367 12.3409 0.988253 12.3409 1.24689V13.5305C12.3409 13.7897 12.1302 14 11.8713 14H1.60798C1.34876 14 1.13845 13.7897 1.13845 13.5305ZM0.65918 11.1173C0.65918 10.8585 0.869493 10.6478 1.12871 10.6478H2.17053C2.42937 10.6478 2.64006 10.8585 2.64006 11.1173C2.64006 11.3765 2.42937 11.5868 2.17053 11.5868H1.12871C0.869493 11.5868 0.65918 11.3765 0.65918 11.1173ZM0.65918 9.61474C0.65918 9.3561 0.869493 9.14521 1.12871 9.14521H2.17053C2.42937 9.14521 2.64006 9.3561 2.64006 9.61474C2.64006 9.87396 2.42937 10.0843 2.17053 10.0843H1.12871C0.869493 10.0843 0.65918 9.87396 0.65918 9.61474ZM0.65918 8.11236C0.65918 7.85353 0.869493 7.64265 1.12871 7.64265H2.17053C2.42937 7.64265 2.64006 7.85353 2.64006 8.11236C2.64006 8.37139 2.42937 8.58189 2.17053 8.58189H1.12871C0.869493 8.58189 0.65918 8.37139 0.65918 8.11236ZM0.65918 6.6098C0.65918 6.35096 0.869493 6.14027 1.12871 6.14027H2.17053C2.42937 6.14027 2.64006 6.35096 2.64006 6.6098C2.64006 6.86901 2.42937 7.07933 2.17053 7.07933H1.12871C0.869493 7.07933 0.65918 6.86901 0.65918 6.6098ZM0.65918 5.10723C0.65918 4.8484 0.869493 4.6377 1.12871 4.6377H2.17053C2.42937 4.6377 2.64006 4.8484 2.64006 5.10723C2.64006 5.36644 2.42937 5.57676 2.17053 5.57676H1.12871C0.869493 5.57676 0.65918 5.36644 0.65918 5.10723ZM0.65918 3.60466C0.65918 3.34602 0.869493 3.13513 1.12871 3.13513H2.17053C2.42937 3.13513 2.64006 3.34602 2.64006 3.60466C2.64006 3.86388 2.42937 4.07419 2.17053 4.07419H1.12871C0.869493 4.07419 0.65918 3.86388 0.65918 3.60466Z" fill="#8D9CB5"/>
<path d="M6.94931 4.79297C5.46238 4.79297 4.25354 6.00181 4.25354 7.48874C4.25354 8.97567 5.46238 10.1845 6.94931 10.1845C8.43624 10.1845 9.64508 8.97567 9.64508 7.48874C9.64508 6.00181 8.43624 4.79297 6.94931 4.79297ZM8.1468 7.05174L6.90391 8.39111C6.84148 8.45922 6.75067 8.49894 6.65419 8.49894C6.55771 8.49894 6.47258 8.45922 6.40448 8.39111L5.75182 7.6817C5.62696 7.54549 5.63264 7.32983 5.76885 7.1993C5.90505 7.07444 6.12072 7.08012 6.25125 7.21632L6.65987 7.65332L7.65305 6.58069C7.78358 6.44448 7.99357 6.43881 8.13545 6.56366C8.26598 6.69987 8.27733 6.91553 8.1468 7.05174Z" fill="white"/>
</svg>
