<svg width="13" height="12" viewBox="0 0 13 12" fill="none" xmlns="http://www.w3.org/2000/svg">
<path d="M3.71429 3.61496V3.38281H3.48214C3.4206 3.38288 3.36159 3.40736 3.31807 3.45088C3.27455 3.4944 3.25007 3.55341 3.25 3.61496V3.8471H3.48214C3.54369 3.84703 3.60269 3.82255 3.64621 3.77903C3.68973 3.73551 3.71422 3.6765 3.71429 3.61496Z" fill="#8D9CB5"/>
<path d="M3.95469 4.77626H3.94641C3.81199 4.77607 3.6792 4.74673 3.55721 4.69027C3.43522 4.63381 3.32691 4.55157 3.23977 4.44922C3.20661 4.66914 3.09574 4.8699 2.92725 5.01508C2.75876 5.16027 2.54382 5.24026 2.32141 5.24055V5.8993L2.72086 7.09769H2.7857V6.16912C2.7857 6.10755 2.81016 6.0485 2.85369 6.00497C2.89723 5.96143 2.95627 5.93698 3.01784 5.93698H3.71427C3.77584 5.93698 3.83488 5.96143 3.87842 6.00497C3.92195 6.0485 3.94641 6.10755 3.94641 6.16912V7.09769H4.01125L4.26794 6.3279L4.26793 6.32789L4.4107 5.89933V5.39407C4.28976 5.33651 4.18488 5.25002 4.10534 5.14226C4.0258 5.0345 3.97405 4.90879 3.95469 4.77626Z" fill="#8D9CB5"/>
<path d="M5.10712 4.66016V3.84766H4.13861C4.10525 3.94128 4.05232 4.02673 3.98336 4.09831C3.91439 4.16989 3.83097 4.22595 3.73865 4.26278C3.80313 4.29511 3.87427 4.31195 3.94641 4.31194H4.17855C4.24012 4.31194 4.29916 4.3364 4.3427 4.37994C4.38623 4.42347 4.41069 4.48252 4.41069 4.54408V4.66016C4.41069 4.75251 4.44738 4.84108 4.51268 4.90638C4.57798 4.97168 4.66655 5.00837 4.75891 5.00837C4.85126 5.00837 4.93983 4.97168 5.00513 4.90638C5.07043 4.84108 5.10712 4.75251 5.10712 4.66016Z" fill="#8D9CB5"/>
<path d="M2.78569 4.31138V3.38281H1.85712V4.31138C1.85712 4.43452 1.90603 4.55261 1.9931 4.63968C2.08017 4.72675 2.19827 4.77567 2.3214 4.77567C2.44454 4.77567 2.56263 4.72675 2.6497 4.63968C2.73677 4.55261 2.78569 4.43452 2.78569 4.31138Z" fill="#8D9CB5"/>
<path d="M7.42855 9.41992H5.57141V10.8128H7.42855V9.41992Z" fill="#8D9CB5"/>
<path d="M8.82141 11.2773H4.17855C4.03457 11.2775 3.89417 11.3222 3.7766 11.4053C3.65904 11.4885 3.57007 11.6059 3.52191 11.7416H9.47805C9.42989 11.6059 9.34093 11.4885 9.22336 11.4053C9.1058 11.3222 8.96539 11.2775 8.82141 11.2773Z" fill="#8D9CB5"/>
<path d="M0.696411 8.95647H12.3036C12.4475 8.95629 12.5879 8.91157 12.7054 8.82844C12.823 8.74532 12.9119 8.62786 12.9601 8.49219H0.039917C0.0880567 8.62786 0.176996 8.74532 0.294533 8.82844C0.412071 8.91157 0.552449 8.95629 0.696411 8.95647Z" fill="#8D9CB5"/>
<path d="M1.16073 3.38281H0.928589V3.61496C0.928659 3.6765 0.95314 3.73551 0.99666 3.77903C1.04018 3.82255 1.09919 3.84703 1.16073 3.8471H1.39287V3.61496C1.3928 3.55341 1.36832 3.4944 1.3248 3.45088C1.28128 3.40736 1.22228 3.38288 1.16073 3.38281Z" fill="#8D9CB5"/>
<path d="M9.51784 5.2407V3.86719C9.26576 3.90981 9.03028 4.02098 8.83718 4.18853C8.64407 4.35607 8.50081 4.57353 8.42307 4.81708C8.34533 5.06064 8.33613 5.32088 8.39645 5.56932C8.45678 5.81776 8.58432 6.0448 8.76509 6.22558C8.94587 6.40635 9.17291 6.53389 9.42135 6.59422C9.66978 6.65455 9.93003 6.64535 10.1736 6.56761C10.4171 6.48988 10.6346 6.34661 10.8021 6.15351C10.9697 5.96041 11.0809 5.72493 11.1235 5.47285H9.74999C9.68842 5.47285 9.62937 5.44839 9.58584 5.40485C9.5423 5.36132 9.51784 5.30227 9.51784 5.2407Z" fill="#8D9CB5"/>
<path d="M10.9107 2.93945V4.08101H12.0523C12.0039 3.79582 11.8681 3.53273 11.6635 3.32819C11.459 3.12365 11.1959 2.9878 10.9107 2.93945Z" fill="#8D9CB5"/>
<path d="M5.26233 6.62098C5.28703 6.62979 5.31305 6.63432 5.33928 6.63437H5.80357C5.84788 6.63448 5.89129 6.62184 5.92861 6.59796L5.87557 6.22656C5.8052 6.33023 5.7146 6.4186 5.60922 6.48638C5.50384 6.55416 5.38585 6.59994 5.26233 6.62098Z" fill="#8D9CB5"/>
<path d="M12.3036 0.134766H0.696429C0.511789 0.134977 0.334772 0.208418 0.204212 0.338978C0.0736525 0.469538 0.000211203 0.646555 0 0.831194V8.02762H13V0.831194C12.9998 0.646555 12.9263 0.469538 12.7958 0.338978C12.6652 0.208418 12.4882 0.134977 12.3036 0.134766ZM11.375 1.52762V1.99191H10.4464V1.52762H11.375ZM8.125 1.52762H9.98214V1.99191H8.125V1.52762ZM3.55013 0.667048C3.59366 0.623511 3.65271 0.599052 3.71429 0.599051H6.26786V1.06334H3.81044L2.25345 2.62034L1.92513 2.29205L3.55013 0.667048ZM5.80357 1.52762V1.99191H4.875V1.52762H5.80357ZM7.42857 5.47405C7.42857 5.48368 7.42798 5.49329 7.42679 5.50284L7.19464 7.35999C7.18762 7.41613 7.16034 7.46778 7.11792 7.50522C7.0755 7.54267 7.02087 7.56333 6.96429 7.56334H6.26786C6.21198 7.56334 6.15797 7.54318 6.11576 7.50657C6.07354 7.46996 6.04595 7.41935 6.03804 7.36404L5.99621 7.07142C5.93362 7.08966 5.86877 7.09896 5.80357 7.09905H5.33929C5.19532 7.09887 5.05495 7.05415 4.93741 6.97102C4.81987 6.8879 4.73093 6.77044 4.68279 6.63477H4.6555L4.39878 7.40462C4.38338 7.45084 4.35382 7.49104 4.3143 7.51952C4.27478 7.54801 4.22729 7.56334 4.17857 7.56334H3.71429C3.65272 7.56334 3.59367 7.53888 3.55014 7.49534C3.5066 7.45181 3.48214 7.39276 3.48214 7.33119V6.40262H3.25V7.33119C3.25 7.39276 3.22554 7.45181 3.18201 7.49534C3.13847 7.53888 3.07943 7.56334 3.01786 7.56334H2.55357C2.50485 7.56334 2.45736 7.54801 2.41783 7.51952C2.3783 7.49103 2.34874 7.45083 2.33333 7.4046L1.86904 6.01175C1.86116 5.98807 1.85715 5.96329 1.85714 5.93834V5.11698C1.71608 5.0355 1.59893 4.91836 1.51744 4.7773C1.43595 4.63625 1.39298 4.47624 1.39286 4.31334H1.16071C0.976074 4.31313 0.799056 4.23969 0.668495 4.10913C0.537935 3.97857 0.464494 3.80155 0.464286 3.61691V3.15262C0.464286 3.09105 0.488744 3.03201 0.532279 2.98847C0.575815 2.94494 0.634861 2.92048 0.696429 2.92048H1.16071C1.26458 2.92037 1.36714 2.94363 1.46079 2.98854C1.48232 2.96693 1.50792 2.9498 1.5361 2.93812C1.56428 2.92643 1.59449 2.92044 1.625 2.92048H3.01786C3.04836 2.92044 3.07858 2.92643 3.10676 2.93812C3.13494 2.9498 3.16053 2.96693 3.18207 2.98854C3.27572 2.94363 3.37828 2.92037 3.48214 2.92048H3.94643C4.008 2.92048 4.06704 2.94494 4.11058 2.98847C4.15411 3.03201 4.17857 3.09105 4.17857 3.15262V3.38477H6.03571C6.405 3.38518 6.75903 3.53206 7.02015 3.79318C7.28128 4.0543 7.42816 4.40834 7.42857 4.77762V5.47405ZM7.66071 1.99191H6.26786V1.52762H7.66071V1.99191ZM9.75 7.09905C9.25745 7.09905 8.78508 6.90339 8.4368 6.55511C8.08852 6.20682 7.89286 5.73445 7.89286 5.24191C7.89286 4.74936 8.08852 4.27699 8.4368 3.92871C8.78508 3.58043 9.25745 3.38477 9.75 3.38477C9.81157 3.38477 9.87061 3.40922 9.91415 3.45276C9.95768 3.49629 9.98214 3.55534 9.98214 3.61691V5.00977H11.375C11.4366 5.00977 11.4956 5.03422 11.5391 5.07776C11.5827 5.12129 11.6071 5.18034 11.6071 5.24191C11.6066 5.73428 11.4107 6.20633 11.0626 6.55449C10.7144 6.90265 10.2424 7.0985 9.75 7.09905ZM12.3036 4.54548H10.6786C10.617 4.54548 10.558 4.52102 10.5144 4.47749C10.4709 4.43395 10.4464 4.3749 10.4464 4.31334V2.68834C10.4464 2.62677 10.4709 2.56772 10.5144 2.52419C10.558 2.48065 10.617 2.45619 10.6786 2.45619C10.9225 2.45616 11.164 2.50418 11.3893 2.59749C11.6146 2.69081 11.8194 2.82761 11.9918 3.00007C12.1643 3.17252 12.3011 3.37727 12.3944 3.6026C12.4877 3.82793 12.5357 4.06944 12.5357 4.31334C12.5357 4.3749 12.5113 4.43395 12.4677 4.47749C12.4242 4.52102 12.3651 4.54548 12.3036 4.54548Z" fill="#8D9CB5"/>
<path d="M6.6642 4.94037C6.56926 5.03583 6.45634 5.11151 6.33196 5.16303C6.20759 5.21455 6.07423 5.24088 5.9396 5.24051H5.80361V4.77623H5.9396C6.08824 4.77622 6.23078 4.71718 6.33588 4.61207C6.44098 4.50697 6.50003 4.36443 6.50004 4.21579V3.97258C6.35904 3.89064 6.19883 3.84753 6.03575 3.84766H5.57146V4.66016C5.57121 4.85545 5.50071 5.04414 5.37285 5.19177C5.24499 5.33939 5.0683 5.4361 4.87504 5.46423V5.93694C4.87503 5.96188 4.87101 5.98665 4.86313 6.01031L4.81024 6.16909H5.10718C5.23027 6.16894 5.34828 6.11998 5.43532 6.03294C5.52236 5.9459 5.57132 5.82789 5.57146 5.7048C5.57147 5.64323 5.59592 5.58419 5.63946 5.54065C5.68299 5.49712 5.74204 5.47266 5.80361 5.47266H6.03575C6.09163 5.47266 6.14564 5.49282 6.18786 5.52943C6.23007 5.56605 6.25767 5.61666 6.26557 5.67198L6.40485 6.64724L6.4692 7.09766H6.75938L6.96432 5.45821V4.77623C6.96438 4.68378 6.95058 4.59184 6.92337 4.50348C6.87524 4.66865 6.78608 4.81895 6.6642 4.94037Z" fill="#8D9CB5"/>
<rect x="0.337646" y="2.76758" width="7.15844" height="4.9974" fill="#8D9CB5"/>
</svg>
