<svg width="12" height="13" viewBox="0 0 12 13" fill="none" xmlns="http://www.w3.org/2000/svg">
<path d="M10.2142 11.142H9.28567V10.2134H8.3571C7.91882 9.33687 7.37189 8.3953 7.11839 7.42773H4.02534C3.77184 8.39437 3.22398 9.33594 2.7857 10.2134H1.85713V11.142H0.928567C0.415998 11.142 0 11.558 0 12.0706V12.9991H0.928567H10.2142H11.1428V12.0706C11.1428 11.558 10.7268 11.142 10.2142 11.142Z" fill="#8D9CB5"/>
<path d="M8.35704 5.5714H6.78777C7.17776 5.23062 7.42848 4.73662 7.42848 4.17855C7.42848 1.85713 5.57134 0 5.57134 0C5.57134 0 5.14606 0.432712 4.70313 1.12914L5.5342 3.06706L4.68085 3.43291L4.15064 2.19699C3.90271 2.78756 3.71421 3.4552 3.71421 4.17855C3.71421 4.73662 3.96492 5.23062 4.35492 5.5714H2.78564V6.49997H8.35704V5.5714Z" fill="#8D9CB5"/>
</svg>
