<svg width="13" height="14" viewBox="0 0 13 14" fill="none" xmlns="http://www.w3.org/2000/svg">
<path d="M2.38571 3.16528e-05C1.53557 3.16528e-05 0.842957 0.692578 0.842957 1.54281V12.341C0.843112 12.3506 0.8438 12.3602 0.845017 12.3696C0.860572 13.2069 1.5463 13.8848 2.38676 13.8848H11.8989C12.0409 13.8853 12.1565 13.7702 12.157 13.6281V12.341V11.0554V0.256123C12.1567 0.187925 12.1294 0.122622 12.081 0.0745902C12.0326 0.0265587 11.9671 -0.000266442 11.8989 1.99544e-06L2.38571 3.16528e-05ZM6.50021 2.05653C7.34898 2.05653 8.04296 2.75051 8.04296 3.5993C8.04296 4.44809 7.34898 5.14205 6.50021 5.14205C5.65142 5.14205 4.95746 4.44809 4.95746 3.5993C4.95746 2.75051 5.65142 2.05653 6.50021 2.05653ZM5.98546 5.65631H7.01446C8.27491 5.65631 9.32859 6.55764 9.32859 7.71281V8.99993C9.3283 9.06787 9.30115 9.13292 9.25307 9.1809C9.20499 9.22889 9.13988 9.25591 9.07196 9.25605H3.92795C3.86012 9.25578 3.79514 9.2287 3.74717 9.18073C3.6992 9.13275 3.67212 9.06778 3.67183 8.99993V7.71281C3.67183 6.55764 4.72502 5.65631 5.98546 5.65631ZM2.38621 11.3136H11.6417V11.7891L11.6422 13.3701H2.38622C1.81205 13.3701 1.35722 12.9155 1.35722 12.341C1.35722 11.7666 1.81204 11.3136 2.38621 11.3136Z" fill="#8D9CB5"/>
</svg>
